<?xml version="1.0" encoding="UTF-8" standalone="no"?>
<svg
   xmlns:dc="http://purl.org/dc/elements/1.1/"
   xmlns:cc="http://creativecommons.org/ns#"
   xmlns:rdf="http://www.w3.org/1999/02/22-rdf-syntax-ns#"
   xmlns:svg="http://www.w3.org/2000/svg"
   xmlns="http://www.w3.org/2000/svg"
   xmlns:sodipodi="http://sodipodi.sourceforge.net/DTD/sodipodi-0.dtd"
   xmlns:inkscape="http://www.inkscape.org/namespaces/inkscape"
   width="8.8492918mm"
   height="8.6823893mm"
   viewBox="0 0 8.8492919 8.6823893"
   version="1.1"
   id="svg8"
   inkscape:version="1.0.2 (e86c870879, 2021-01-15)"
   sodipodi:docname="blossom.svg">
  <defs
     id="defs2" />
  <sodipodi:namedview
     id="base"
     pagecolor="#ffffff"
     bordercolor="#666666"
     borderopacity="1.0"
     inkscape:pageopacity="0.0"
     inkscape:pageshadow="2"
     inkscape:zoom="7.919596"
     inkscape:cx="-22.915465"
     inkscape:cy="46.423882"
     inkscape:document-units="mm"
     inkscape:current-layer="layer2"
     inkscape:document-rotation="0"
     showgrid="false"
     fit-margin-top="0"
     fit-margin-left="0"
     fit-margin-right="0"
     fit-margin-bottom="0"
     inkscape:window-width="1720"
     inkscape:window-height="1376"
     inkscape:window-x="0"
     inkscape:window-y="27"
     inkscape:window-maximized="0" />
  <metadata
     id="metadata5">
    <rdf:RDF>
      <cc:Work
         rdf:about="">
        <dc:format>image/svg+xml</dc:format>
        <dc:type
           rdf:resource="http://purl.org/dc/dcmitype/StillImage" />
        <dc:title></dc:title>
      </cc:Work>
    </rdf:RDF>
  </metadata>
  <g
     inkscape:label="Ebene 1"
     inkscape:groupmode="layer"
     id="layer1"
     transform="translate(-0.04953437,3.6584251)" />
  <g
     inkscape:groupmode="layer"
     id="layer2"
     inkscape:label="F.SilkS"
     transform="translate(1.7318231e-8,3.7080925)">
    <path
       id="path835"
       style="fill:#000000;fill-opacity:1;stroke:#000000;stroke-width:0.0389077"
       d="M 5.3914879,-3.6885551 C 4.7486217,-3.6795905 4.5652777,-3.0066573 3.6886663,-2.8198186 2.6497205,-2.5983783 2.2215092,-3.3975466 1.432474,-2.6863083 0.64344034,-1.975064 1.39405,-1.4665023 1.0663471,-0.4560299 0.73864563,0.55444429 -0.16760445,0.52571731 0.05383436,1.5646647 0.27527315,2.6036105 1.0910043,2.2079207 1.8022502,2.9969558 2.5134945,3.7859896 2.0355315,4.556431 3.0460055,4.8841325 4.0564779,5.2118323 4.1216024,4.3075065 5.1605498,4.0860678 6.1994956,3.8646289 6.6277826,4.6637957 7.4168179,3.9525574 8.2058517,3.241313 7.4552419,2.7326758 7.7829449,1.7222031 8.1106463,0.71172912 9.0168964,0.74045435 8.7954576,-0.29849146 8.5740187,-1.3374373 7.7582104,-0.94167152 7.046966,-1.7307053 6.3357216,-2.5197404 6.8136846,-3.2901819 5.8032106,-3.6178834 5.6453245,-3.6690896 5.5105375,-3.6902027 5.3914879,-3.6885489 Z m -2.1043603,1.344596 c 0.393367,-8.207e-4 0.6176281,0.3938275 1.2148014,0.4154475 0.7643827,0.027667 0.9740532,-0.5980806 1.6188515,-0.1884599 0.6447969,0.4096205 0.1716747,0.8680392 0.5241136,1.54984908 0.3524392,0.68180967 0.9929145,0.54722356 0.9585584,1.31853209 C 7.5690935,1.5227184 6.9426987,1.3421672 6.5307551,1.9963042 6.1188115,2.6504411 6.5496116,3.1416069 5.8704635,3.5032948 5.1913108,3.8649845 5.0379577,3.2260902 4.2735752,3.1984161 3.509191,3.1707495 3.2995221,3.7964967 2.6547236,3.3868761 2.0099268,2.9772555 2.4829732,2.5188366 2.1305343,1.8370269 1.7780953,1.1552172 1.13762,1.2898805 1.171976,0.51857039 1.206335,-0.25273814 1.8328054,-0.07226273 2.244749,-0.72639968 2.6566927,-1.3805368 2.2258926,-1.8717024 2.9050406,-2.2333904 c 0.1485647,-0.07912 0.2719435,-0.1103415 0.382087,-0.1105734 z" />
    <path
       sodipodi:type="star"
       style="fill:#4d75ca;fill-opacity:1;stroke:#000000;stroke-width:0.264583"
       id="path835-7-3"
       sodipodi:sides="6"
       sodipodi:cx="79.10968"
       sodipodi:cy="59.985508"
       sodipodi:r1="30.390347"
       sodipodi:r2="24.008373"
       sodipodi:arg1="0.83720138"
       sodipodi:arg2="1.3608002"
       inkscape:flatsided="false"
       inkscape:rounded="0.47"
       inkscape:randomized="0"
       transform="matrix(0.05736602,-0.00940492,0.009298,0.05809055,-0.66225244,-2.0901567)"
       d="m 99.45736,82.558613 c -5.365651,4.836665 -8.277866,-0.598003 -15.342988,0.907846 -7.065121,1.505848 -7.508236,7.655667 -14.379735,5.427209 -6.871499,-2.228457 -3.621046,-7.467844 -8.457711,-12.833494 -4.836663,-5.36565 -10.38412,-2.67449 -11.889968,-9.739611 -1.505849,-7.065122 4.656819,-6.86984 6.885276,-13.74134 2.228457,-6.871498 -2.875883,-10.330157 2.489766,-15.166821 5.365651,-4.836664 8.277866,0.598004 15.342988,-0.907845 7.065121,-1.505849 7.508237,-7.655667 14.379735,-5.427209 6.8715,2.228457 3.621046,7.467844 8.457711,12.833494 4.836666,5.36565 10.384116,2.67449 11.889966,9.739611 1.50585,7.065122 -4.65682,6.86984 -6.88527,13.74134 -2.228461,6.871498 2.87588,10.330157 -2.48977,15.16682 z" />
  </g>
</svg>
