  0
SECTION
  2
BLOCKS
  0
ENDSEC
  0
SECTION
  2
ENTITIES
  0
LINE
  8
0
 10
5.21327
 20
-24.3557
 11
5.84697
 21
-24.2828
  0
LINE
  8
0
 10
5.84697
 20
-24.2828
 11
6.47047
 21
-24.1481
  0
LINE
  8
0
 10
6.47047
 20
-24.1481
 11
7.07777
 21
-23.953
  0
LINE
  8
0
 10
7.07777
 20
-23.953
 11
7.66302
 21
-23.6993
  0
LINE
  8
0
 10
7.66302
 20
-23.6993
 11
8.22058
 21
-23.3894
  0
LINE
  8
0
 10
8.22058
 20
-23.3894
 11
8.74509
 21
-23.0264
  0
LINE
  8
0
 10
8.74509
 20
-23.0264
 11
9.23149
 21
-22.6137
  0
LINE
  8
0
 10
9.23149
 20
-22.6137
 11
9.67511
 21
-22.1554
  0
LINE
  8
0
 10
9.67511
 20
-22.1554
 11
10.0717
 21
-21.6557
  0
LINE
  8
0
 10
10.0717
 20
-21.6557
 11
10.4173
 21
-21.1196
  0
LINE
  8
0
 10
10.4173
 20
-21.1196
 11
10.7088
 21
-20.5522
  0
LINE
  8
0
 10
10.7088
 20
-20.5522
 11
10.9432
 21
-19.959
  0
LINE
  8
0
 10
10.9432
 20
-19.959
 11
11.1183
 21
-19.3456
  0
LINE
  8
0
 10
11.1183
 20
-19.3456
 11
11.1305
 21
-19.2786
  0
LINE
  8
0
 10
11.1305
 20
-19.2786
 11
11.1946
 21
-19.3016
  0
LINE
  8
0
 10
11.1946
 20
-19.3016
 11
11.8134
 21
-19.4566
  0
LINE
  8
0
 10
11.8134
 20
-19.4566
 11
12.4444
 21
-19.5502
  0
LINE
  8
0
 10
12.4444
 20
-19.5502
 11
13.0815
 21
-19.5815
  0
LINE
  8
0
 10
13.0815
 20
-19.5815
 11
13.7186
 21
-19.5502
  0
LINE
  8
0
 10
13.7186
 20
-19.5502
 11
14.3495
 21
-19.4566
  0
LINE
  8
0
 10
14.3495
 20
-19.4566
 11
14.9683
 21
-19.3016
  0
LINE
  8
0
 10
14.9683
 20
-19.3016
 11
15.5689
 21
-19.0867
  0
LINE
  8
0
 10
15.5689
 20
-19.0867
 11
16.1456
 21
-18.8139
  0
LINE
  8
0
 10
16.1456
 20
-18.8139
 11
16.6927
 21
-18.486
  0
LINE
  8
0
 10
16.6927
 20
-18.486
 11
17.205
 21
-18.106
  0
LINE
  8
0
 10
17.205
 20
-18.106
 11
17.6777
 21
-17.6777
  0
LINE
  8
0
 10
17.6777
 20
-17.6777
 11
18.106
 21
-17.205
  0
LINE
  8
0
 10
18.106
 20
-17.205
 11
18.486
 21
-16.6927
  0
LINE
  8
0
 10
18.486
 20
-16.6927
 11
18.8139
 21
-16.1456
  0
LINE
  8
0
 10
18.8139
 20
-16.1456
 11
19.0867
 21
-15.5689
  0
LINE
  8
0
 10
19.0867
 20
-15.5689
 11
19.3016
 21
-14.9683
  0
LINE
  8
0
 10
19.3016
 20
-14.9683
 11
19.4566
 21
-14.3495
  0
LINE
  8
0
 10
19.4566
 20
-14.3495
 11
19.5502
 21
-13.7186
  0
LINE
  8
0
 10
19.5502
 20
-13.7186
 11
19.5815
 21
-13.0815
  0
LINE
  8
0
 10
19.5815
 20
-13.0815
 11
19.5502
 21
-12.4444
  0
LINE
  8
0
 10
19.5502
 20
-12.4444
 11
19.4566
 21
-11.8134
  0
LINE
  8
0
 10
19.4566
 20
-11.8134
 11
19.3016
 21
-11.1946
  0
LINE
  8
0
 10
19.3016
 20
-11.1946
 11
19.2786
 21
-11.1305
  0
LINE
  8
0
 10
19.2786
 20
-11.1305
 11
19.3456
 21
-11.1183
  0
LINE
  8
0
 10
19.3456
 20
-11.1183
 11
19.959
 21
-10.9432
  0
LINE
  8
0
 10
19.959
 20
-10.9432
 11
20.5522
 21
-10.7088
  0
LINE
  8
0
 10
20.5522
 20
-10.7088
 11
21.1196
 21
-10.4173
  0
LINE
  8
0
 10
21.1196
 20
-10.4173
 11
21.6557
 21
-10.0717
  0
LINE
  8
0
 10
21.6557
 20
-10.0717
 11
22.1554
 21
-9.67511
  0
LINE
  8
0
 10
22.1554
 20
-9.67511
 11
22.6137
 21
-9.23149
  0
LINE
  8
0
 10
22.6137
 20
-9.23149
 11
23.0264
 21
-8.74509
  0
LINE
  8
0
 10
23.0264
 20
-8.74509
 11
23.3894
 21
-8.22058
  0
LINE
  8
0
 10
23.3894
 20
-8.22058
 11
23.6993
 21
-7.66302
  0
LINE
  8
0
 10
23.6993
 20
-7.66302
 11
23.953
 21
-7.07777
  0
LINE
  8
0
 10
23.953
 20
-7.07777
 11
24.1481
 21
-6.47047
  0
LINE
  8
0
 10
24.1481
 20
-6.47047
 11
24.2828
 21
-5.84697
  0
LINE
  8
0
 10
24.2828
 20
-5.84697
 11
24.3557
 21
-5.21327
  0
LINE
  8
0
 10
24.3557
 20
-5.21327
 11
24.3661
 21
-4.57547
  0
LINE
  8
0
 10
24.3661
 20
-4.57547
 11
24.314
 21
-3.93973
  0
LINE
  8
0
 10
24.314
 20
-3.93973
 11
24.1998
 21
-3.31215
  0
LINE
  8
0
 10
24.1998
 20
-3.31215
 11
24.0247
 21
-2.69879
  0
LINE
  8
0
 10
24.0247
 20
-2.69879
 11
23.7902
 21
-2.10555
  0
LINE
  8
0
 10
23.7902
 20
-2.10555
 11
23.4988
 21
-1.53815
  0
LINE
  8
0
 10
23.4988
 20
-1.53815
 11
23.1531
 21
-1.00204
  0
LINE
  8
0
 10
23.1531
 20
-1.00204
 11
22.7566
 21
-0.502396
  0
LINE
  8
0
 10
22.7566
 20
-0.502396
 11
22.313
 21
-0.0440216
  0
LINE
  8
0
 10
22.313
 20
-0.0440216
 11
22.2611
 21
0
  0
LINE
  8
0
 10
22.2611
 20
0
 11
22.313
 21
0.0440216
  0
LINE
  8
0
 10
22.313
 20
0.0440216
 11
22.7566
 21
0.502396
  0
LINE
  8
0
 10
22.7566
 20
0.502396
 11
23.1531
 21
1.00204
  0
LINE
  8
0
 10
23.1531
 20
1.00204
 11
23.4988
 21
1.53815
  0
LINE
  8
0
 10
23.4988
 20
1.53815
 11
23.7902
 21
2.10555
  0
LINE
  8
0
 10
23.7902
 20
2.10555
 11
24.0247
 21
2.69879
  0
LINE
  8
0
 10
24.0247
 20
2.69879
 11
24.1998
 21
3.31215
  0
LINE
  8
0
 10
24.1998
 20
3.31215
 11
24.314
 21
3.93973
  0
LINE
  8
0
 10
24.314
 20
3.93973
 11
24.3661
 21
4.57547
  0
LINE
  8
0
 10
24.3661
 20
4.57547
 11
24.3557
 21
5.21327
  0
LINE
  8
0
 10
24.3557
 20
5.21327
 11
24.2828
 21
5.84697
  0
LINE
  8
0
 10
24.2828
 20
5.84697
 11
24.1481
 21
6.47047
  0
LINE
  8
0
 10
24.1481
 20
6.47047
 11
23.953
 21
7.07777
  0
LINE
  8
0
 10
23.953
 20
7.07777
 11
23.6993
 21
7.66302
  0
LINE
  8
0
 10
23.6993
 20
7.66302
 11
23.3894
 21
8.22058
  0
LINE
  8
0
 10
23.3894
 20
8.22058
 11
23.0264
 21
8.74509
  0
LINE
  8
0
 10
23.0264
 20
8.74509
 11
22.6137
 21
9.23149
  0
LINE
  8
0
 10
22.6137
 20
9.23149
 11
22.1554
 21
9.67511
  0
LINE
  8
0
 10
22.1554
 20
9.67511
 11
21.6557
 21
10.0717
  0
LINE
  8
0
 10
21.6557
 20
10.0717
 11
21.1196
 21
10.4173
  0
LINE
  8
0
 10
21.1196
 20
10.4173
 11
20.5522
 21
10.7088
  0
LINE
  8
0
 10
20.5522
 20
10.7088
 11
19.959
 21
10.9432
  0
LINE
  8
0
 10
19.959
 20
10.9432
 11
19.3456
 21
11.1183
  0
LINE
  8
0
 10
19.3456
 20
11.1183
 11
19.2786
 21
11.1305
  0
LINE
  8
0
 10
19.2786
 20
11.1305
 11
19.3016
 21
11.1946
  0
LINE
  8
0
 10
19.3016
 20
11.1946
 11
19.4566
 21
11.8134
  0
LINE
  8
0
 10
19.4566
 20
11.8134
 11
19.5502
 21
12.4444
  0
LINE
  8
0
 10
19.5502
 20
12.4444
 11
19.5815
 21
13.0815
  0
LINE
  8
0
 10
19.5815
 20
13.0815
 11
19.5502
 21
13.7186
  0
LINE
  8
0
 10
19.5502
 20
13.7186
 11
19.4566
 21
14.3495
  0
LINE
  8
0
 10
19.4566
 20
14.3495
 11
19.3016
 21
14.9683
  0
LINE
  8
0
 10
19.3016
 20
14.9683
 11
19.0867
 21
15.5689
  0
LINE
  8
0
 10
19.0867
 20
15.5689
 11
18.8139
 21
16.1456
  0
LINE
  8
0
 10
18.8139
 20
16.1456
 11
18.486
 21
16.6927
  0
LINE
  8
0
 10
18.486
 20
16.6927
 11
18.106
 21
17.205
  0
LINE
  8
0
 10
18.106
 20
17.205
 11
17.6777
 21
17.6777
  0
LINE
  8
0
 10
17.6777
 20
17.6777
 11
17.205
 21
18.106
  0
LINE
  8
0
 10
17.205
 20
18.106
 11
16.6927
 21
18.486
  0
LINE
  8
0
 10
16.6927
 20
18.486
 11
16.1456
 21
18.8139
  0
LINE
  8
0
 10
16.1456
 20
18.8139
 11
15.5689
 21
19.0867
  0
LINE
  8
0
 10
15.5689
 20
19.0867
 11
14.9683
 21
19.3016
  0
LINE
  8
0
 10
14.9683
 20
19.3016
 11
14.3495
 21
19.4566
  0
LINE
  8
0
 10
14.3495
 20
19.4566
 11
13.7186
 21
19.5502
  0
LINE
  8
0
 10
13.7186
 20
19.5502
 11
13.0815
 21
19.5815
  0
LINE
  8
0
 10
13.0815
 20
19.5815
 11
12.4444
 21
19.5502
  0
LINE
  8
0
 10
12.4444
 20
19.5502
 11
11.8134
 21
19.4566
  0
LINE
  8
0
 10
11.8134
 20
19.4566
 11
11.1946
 21
19.3016
  0
LINE
  8
0
 10
11.1946
 20
19.3016
 11
11.1305
 21
19.2786
  0
LINE
  8
0
 10
11.1305
 20
19.2786
 11
11.1183
 21
19.3456
  0
LINE
  8
0
 10
11.1183
 20
19.3456
 11
10.9432
 21
19.959
  0
LINE
  8
0
 10
10.9432
 20
19.959
 11
10.7088
 21
20.5522
  0
LINE
  8
0
 10
10.7088
 20
20.5522
 11
10.4173
 21
21.1196
  0
LINE
  8
0
 10
10.4173
 20
21.1196
 11
10.0717
 21
21.6557
  0
LINE
  8
0
 10
10.0717
 20
21.6557
 11
9.67511
 21
22.1554
  0
LINE
  8
0
 10
9.67511
 20
22.1554
 11
9.23149
 21
22.6137
  0
LINE
  8
0
 10
9.23149
 20
22.6137
 11
8.74509
 21
23.0264
  0
LINE
  8
0
 10
8.74509
 20
23.0264
 11
8.22058
 21
23.3894
  0
LINE
  8
0
 10
8.22058
 20
23.3894
 11
7.66302
 21
23.6993
  0
LINE
  8
0
 10
7.66302
 20
23.6993
 11
7.07777
 21
23.953
  0
LINE
  8
0
 10
7.07777
 20
23.953
 11
6.47047
 21
24.1481
  0
LINE
  8
0
 10
6.47047
 20
24.1481
 11
5.84697
 21
24.2828
  0
LINE
  8
0
 10
5.84697
 20
24.2828
 11
5.21327
 21
24.3557
  0
LINE
  8
0
 10
5.21327
 20
24.3557
 11
4.57547
 21
24.3661
  0
LINE
  8
0
 10
4.57547
 20
24.3661
 11
3.93973
 21
24.314
  0
LINE
  8
0
 10
3.93973
 20
24.314
 11
3.31215
 21
24.1998
  0
LINE
  8
0
 10
3.31215
 20
24.1998
 11
2.69879
 21
24.0247
  0
LINE
  8
0
 10
2.69879
 20
24.0247
 11
2.10555
 21
23.7902
  0
LINE
  8
0
 10
2.10555
 20
23.7902
 11
1.53815
 21
23.4988
  0
LINE
  8
0
 10
1.53815
 20
23.4988
 11
1.00204
 21
23.1531
  0
LINE
  8
0
 10
1.00204
 20
23.1531
 11
0.502396
 21
22.7566
  0
LINE
  8
0
 10
0.502396
 20
22.7566
 11
0.0440216
 21
22.313
  0
LINE
  8
0
 10
0.0440216
 20
22.313
 11
0
 21
22.2611
  0
LINE
  8
0
 10
0
 20
22.2611
 11
-0.0440216
 21
22.313
  0
LINE
  8
0
 10
-0.0440216
 20
22.313
 11
-0.502396
 21
22.7566
  0
LINE
  8
0
 10
-0.502396
 20
22.7566
 11
-1.00204
 21
23.1531
  0
LINE
  8
0
 10
-1.00204
 20
23.1531
 11
-1.53815
 21
23.4988
  0
LINE
  8
0
 10
-1.53815
 20
23.4988
 11
-2.10555
 21
23.7902
  0
LINE
  8
0
 10
-2.10555
 20
23.7902
 11
-2.69879
 21
24.0247
  0
LINE
  8
0
 10
-2.69879
 20
24.0247
 11
-3.31215
 21
24.1998
  0
LINE
  8
0
 10
-3.31215
 20
24.1998
 11
-3.93973
 21
24.314
  0
LINE
  8
0
 10
-3.93973
 20
24.314
 11
-4.57547
 21
24.3661
  0
LINE
  8
0
 10
-4.57547
 20
24.3661
 11
-5.21327
 21
24.3557
  0
LINE
  8
0
 10
-5.21327
 20
24.3557
 11
-5.84697
 21
24.2828
  0
LINE
  8
0
 10
-5.84697
 20
24.2828
 11
-6.47047
 21
24.1481
  0
LINE
  8
0
 10
-6.47047
 20
24.1481
 11
-7.07777
 21
23.953
  0
LINE
  8
0
 10
-7.07777
 20
23.953
 11
-7.66302
 21
23.6993
  0
LINE
  8
0
 10
-7.66302
 20
23.6993
 11
-8.22058
 21
23.3894
  0
LINE
  8
0
 10
-8.22058
 20
23.3894
 11
-8.74509
 21
23.0264
  0
LINE
  8
0
 10
-8.74509
 20
23.0264
 11
-9.23149
 21
22.6137
  0
LINE
  8
0
 10
-9.23149
 20
22.6137
 11
-9.67511
 21
22.1554
  0
LINE
  8
0
 10
-9.67511
 20
22.1554
 11
-10.0717
 21
21.6557
  0
LINE
  8
0
 10
-10.0717
 20
21.6557
 11
-10.4173
 21
21.1196
  0
LINE
  8
0
 10
-10.4173
 20
21.1196
 11
-10.7088
 21
20.5522
  0
LINE
  8
0
 10
-10.7088
 20
20.5522
 11
-10.9432
 21
19.959
  0
LINE
  8
0
 10
-10.9432
 20
19.959
 11
-11.1183
 21
19.3456
  0
LINE
  8
0
 10
-11.1183
 20
19.3456
 11
-11.1305
 21
19.2786
  0
LINE
  8
0
 10
-11.1305
 20
19.2786
 11
-11.1946
 21
19.3016
  0
LINE
  8
0
 10
-11.1946
 20
19.3016
 11
-11.8134
 21
19.4566
  0
LINE
  8
0
 10
-11.8134
 20
19.4566
 11
-12.4444
 21
19.5502
  0
LINE
  8
0
 10
-12.4444
 20
19.5502
 11
-13.0815
 21
19.5815
  0
LINE
  8
0
 10
-13.0815
 20
19.5815
 11
-13.7186
 21
19.5502
  0
LINE
  8
0
 10
-13.7186
 20
19.5502
 11
-14.3495
 21
19.4566
  0
LINE
  8
0
 10
-14.3495
 20
19.4566
 11
-14.9683
 21
19.3016
  0
LINE
  8
0
 10
-14.9683
 20
19.3016
 11
-15.5689
 21
19.0867
  0
LINE
  8
0
 10
-15.5689
 20
19.0867
 11
-16.1456
 21
18.8139
  0
LINE
  8
0
 10
-16.1456
 20
18.8139
 11
-16.6927
 21
18.486
  0
LINE
  8
0
 10
-16.6927
 20
18.486
 11
-17.205
 21
18.106
  0
LINE
  8
0
 10
-17.205
 20
18.106
 11
-17.6777
 21
17.6777
  0
LINE
  8
0
 10
-17.6777
 20
17.6777
 11
-18.106
 21
17.205
  0
LINE
  8
0
 10
-18.106
 20
17.205
 11
-18.486
 21
16.6927
  0
LINE
  8
0
 10
-18.486
 20
16.6927
 11
-18.8139
 21
16.1456
  0
LINE
  8
0
 10
-18.8139
 20
16.1456
 11
-19.0867
 21
15.5689
  0
LINE
  8
0
 10
-19.0867
 20
15.5689
 11
-19.3016
 21
14.9683
  0
LINE
  8
0
 10
-19.3016
 20
14.9683
 11
-19.4566
 21
14.3495
  0
LINE
  8
0
 10
-19.4566
 20
14.3495
 11
-19.5502
 21
13.7186
  0
LINE
  8
0
 10
-19.5502
 20
13.7186
 11
-19.5815
 21
13.0815
  0
LINE
  8
0
 10
-19.5815
 20
13.0815
 11
-19.5502
 21
12.4444
  0
LINE
  8
0
 10
-19.5502
 20
12.4444
 11
-19.4566
 21
11.8134
  0
LINE
  8
0
 10
-19.4566
 20
11.8134
 11
-19.3016
 21
11.1946
  0
LINE
  8
0
 10
-19.3016
 20
11.1946
 11
-19.2786
 21
11.1305
  0
LINE
  8
0
 10
-19.2786
 20
11.1305
 11
-19.3456
 21
11.1183
  0
LINE
  8
0
 10
-19.3456
 20
11.1183
 11
-19.959
 21
10.9432
  0
LINE
  8
0
 10
-19.959
 20
10.9432
 11
-20.5522
 21
10.7088
  0
LINE
  8
0
 10
-20.5522
 20
10.7088
 11
-21.1196
 21
10.4173
  0
LINE
  8
0
 10
-21.1196
 20
10.4173
 11
-21.6557
 21
10.0717
  0
LINE
  8
0
 10
-21.6557
 20
10.0717
 11
-22.1554
 21
9.67511
  0
LINE
  8
0
 10
-22.1554
 20
9.67511
 11
-22.6137
 21
9.23149
  0
LINE
  8
0
 10
-22.6137
 20
9.23149
 11
-23.0264
 21
8.74509
  0
LINE
  8
0
 10
-23.0264
 20
8.74509
 11
-23.3894
 21
8.22058
  0
LINE
  8
0
 10
-23.3894
 20
8.22058
 11
-23.6993
 21
7.66302
  0
LINE
  8
0
 10
-23.6993
 20
7.66302
 11
-23.953
 21
7.07777
  0
LINE
  8
0
 10
-23.953
 20
7.07777
 11
-24.1481
 21
6.47047
  0
LINE
  8
0
 10
-24.1481
 20
6.47047
 11
-24.2828
 21
5.84697
  0
LINE
  8
0
 10
-24.2828
 20
5.84697
 11
-24.3557
 21
5.21327
  0
LINE
  8
0
 10
-24.3557
 20
5.21327
 11
-24.3661
 21
4.57547
  0
LINE
  8
0
 10
-24.3661
 20
4.57547
 11
-24.314
 21
3.93973
  0
LINE
  8
0
 10
-24.314
 20
3.93973
 11
-24.1998
 21
3.31215
  0
LINE
  8
0
 10
-24.1998
 20
3.31215
 11
-24.0247
 21
2.69879
  0
LINE
  8
0
 10
-24.0247
 20
2.69879
 11
-23.7902
 21
2.10555
  0
LINE
  8
0
 10
-23.7902
 20
2.10555
 11
-23.4988
 21
1.53815
  0
LINE
  8
0
 10
-23.4988
 20
1.53815
 11
-23.1531
 21
1.00204
  0
LINE
  8
0
 10
-23.1531
 20
1.00204
 11
-22.7566
 21
0.502396
  0
LINE
  8
0
 10
-22.7566
 20
0.502396
 11
-22.313
 21
0.0440216
  0
LINE
  8
0
 10
-22.313
 20
0.0440216
 11
-22.2611
 21
0
  0
LINE
  8
0
 10
-22.2611
 20
0
 11
-22.313
 21
-0.0440216
  0
LINE
  8
0
 10
-22.313
 20
-0.0440216
 11
-22.7566
 21
-0.502396
  0
LINE
  8
0
 10
-22.7566
 20
-0.502396
 11
-23.1531
 21
-1.00204
  0
LINE
  8
0
 10
-23.1531
 20
-1.00204
 11
-23.4988
 21
-1.53815
  0
LINE
  8
0
 10
-23.4988
 20
-1.53815
 11
-23.7902
 21
-2.10555
  0
LINE
  8
0
 10
-23.7902
 20
-2.10555
 11
-24.0247
 21
-2.69879
  0
LINE
  8
0
 10
-24.0247
 20
-2.69879
 11
-24.1998
 21
-3.31215
  0
LINE
  8
0
 10
-24.1998
 20
-3.31215
 11
-24.314
 21
-3.93973
  0
LINE
  8
0
 10
-24.314
 20
-3.93973
 11
-24.3661
 21
-4.57547
  0
LINE
  8
0
 10
-24.3661
 20
-4.57547
 11
-24.3557
 21
-5.21327
  0
LINE
  8
0
 10
-24.3557
 20
-5.21327
 11
-24.2828
 21
-5.84697
  0
LINE
  8
0
 10
-24.2828
 20
-5.84697
 11
-24.1481
 21
-6.47047
  0
LINE
  8
0
 10
-24.1481
 20
-6.47047
 11
-23.953
 21
-7.07777
  0
LINE
  8
0
 10
-23.953
 20
-7.07777
 11
-23.6993
 21
-7.66302
  0
LINE
  8
0
 10
-23.6993
 20
-7.66302
 11
-23.3894
 21
-8.22058
  0
LINE
  8
0
 10
-23.3894
 20
-8.22058
 11
-23.0264
 21
-8.74509
  0
LINE
  8
0
 10
-23.0264
 20
-8.74509
 11
-22.6137
 21
-9.23149
  0
LINE
  8
0
 10
-22.6137
 20
-9.23149
 11
-22.1554
 21
-9.67511
  0
LINE
  8
0
 10
-22.1554
 20
-9.67511
 11
-21.6557
 21
-10.0717
  0
LINE
  8
0
 10
-21.6557
 20
-10.0717
 11
-21.1196
 21
-10.4173
  0
LINE
  8
0
 10
-21.1196
 20
-10.4173
 11
-20.5522
 21
-10.7088
  0
LINE
  8
0
 10
-20.5522
 20
-10.7088
 11
-19.959
 21
-10.9432
  0
LINE
  8
0
 10
-19.959
 20
-10.9432
 11
-19.3456
 21
-11.1183
  0
LINE
  8
0
 10
-19.3456
 20
-11.1183
 11
-19.2786
 21
-11.1305
  0
LINE
  8
0
 10
-19.2786
 20
-11.1305
 11
-19.3016
 21
-11.1946
  0
LINE
  8
0
 10
-19.3016
 20
-11.1946
 11
-19.4566
 21
-11.8134
  0
LINE
  8
0
 10
-19.4566
 20
-11.8134
 11
-19.5502
 21
-12.4444
  0
LINE
  8
0
 10
-19.5502
 20
-12.4444
 11
-19.5815
 21
-13.0815
  0
LINE
  8
0
 10
-19.5815
 20
-13.0815
 11
-19.5502
 21
-13.7186
  0
LINE
  8
0
 10
-19.5502
 20
-13.7186
 11
-19.4566
 21
-14.3495
  0
LINE
  8
0
 10
-19.4566
 20
-14.3495
 11
-19.3016
 21
-14.9683
  0
LINE
  8
0
 10
-19.3016
 20
-14.9683
 11
-19.0867
 21
-15.5689
  0
LINE
  8
0
 10
-19.0867
 20
-15.5689
 11
-18.8139
 21
-16.1456
  0
LINE
  8
0
 10
-18.8139
 20
-16.1456
 11
-18.486
 21
-16.6927
  0
LINE
  8
0
 10
-18.486
 20
-16.6927
 11
-18.106
 21
-17.205
  0
LINE
  8
0
 10
-18.106
 20
-17.205
 11
-17.6777
 21
-17.6777
  0
LINE
  8
0
 10
-17.6777
 20
-17.6777
 11
-17.205
 21
-18.106
  0
LINE
  8
0
 10
-17.205
 20
-18.106
 11
-16.6927
 21
-18.486
  0
LINE
  8
0
 10
-16.6927
 20
-18.486
 11
-16.1456
 21
-18.8139
  0
LINE
  8
0
 10
-16.1456
 20
-18.8139
 11
-15.5689
 21
-19.0867
  0
LINE
  8
0
 10
-15.5689
 20
-19.0867
 11
-14.9683
 21
-19.3016
  0
LINE
  8
0
 10
-14.9683
 20
-19.3016
 11
-14.3495
 21
-19.4566
  0
LINE
  8
0
 10
-14.3495
 20
-19.4566
 11
-13.7186
 21
-19.5502
  0
LINE
  8
0
 10
-13.7186
 20
-19.5502
 11
-13.0815
 21
-19.5815
  0
LINE
  8
0
 10
-13.0815
 20
-19.5815
 11
-12.4444
 21
-19.5502
  0
LINE
  8
0
 10
-12.4444
 20
-19.5502
 11
-11.8134
 21
-19.4566
  0
LINE
  8
0
 10
-11.8134
 20
-19.4566
 11
-11.1946
 21
-19.3016
  0
LINE
  8
0
 10
-11.1946
 20
-19.3016
 11
-11.1305
 21
-19.2786
  0
LINE
  8
0
 10
-11.1305
 20
-19.2786
 11
-11.1183
 21
-19.3456
  0
LINE
  8
0
 10
-11.1183
 20
-19.3456
 11
-10.9432
 21
-19.959
  0
LINE
  8
0
 10
-10.9432
 20
-19.959
 11
-10.7088
 21
-20.5522
  0
LINE
  8
0
 10
-10.7088
 20
-20.5522
 11
-10.4173
 21
-21.1196
  0
LINE
  8
0
 10
-10.4173
 20
-21.1196
 11
-10.0717
 21
-21.6557
  0
LINE
  8
0
 10
-10.0717
 20
-21.6557
 11
-9.67511
 21
-22.1554
  0
LINE
  8
0
 10
-9.67511
 20
-22.1554
 11
-9.23149
 21
-22.6137
  0
LINE
  8
0
 10
-9.23149
 20
-22.6137
 11
-8.74509
 21
-23.0264
  0
LINE
  8
0
 10
-8.74509
 20
-23.0264
 11
-8.22058
 21
-23.3894
  0
LINE
  8
0
 10
-8.22058
 20
-23.3894
 11
-7.66302
 21
-23.6993
  0
LINE
  8
0
 10
-7.66302
 20
-23.6993
 11
-7.07777
 21
-23.953
  0
LINE
  8
0
 10
-7.07777
 20
-23.953
 11
-6.47047
 21
-24.1481
  0
LINE
  8
0
 10
-6.47047
 20
-24.1481
 11
-5.84697
 21
-24.2828
  0
LINE
  8
0
 10
-5.84697
 20
-24.2828
 11
-5.21327
 21
-24.3557
  0
LINE
  8
0
 10
-5.21327
 20
-24.3557
 11
-4.57547
 21
-24.3661
  0
LINE
  8
0
 10
-4.57547
 20
-24.3661
 11
-3.93973
 21
-24.314
  0
LINE
  8
0
 10
-3.93973
 20
-24.314
 11
-3.31215
 21
-24.1998
  0
LINE
  8
0
 10
-3.31215
 20
-24.1998
 11
-2.69879
 21
-24.0247
  0
LINE
  8
0
 10
-2.69879
 20
-24.0247
 11
-2.10555
 21
-23.7902
  0
LINE
  8
0
 10
-2.10555
 20
-23.7902
 11
-1.53815
 21
-23.4988
  0
LINE
  8
0
 10
-1.53815
 20
-23.4988
 11
-1.00204
 21
-23.1531
  0
LINE
  8
0
 10
-1.00204
 20
-23.1531
 11
-0.502396
 21
-22.7566
  0
LINE
  8
0
 10
-0.502396
 20
-22.7566
 11
-0.0440216
 21
-22.313
  0
LINE
  8
0
 10
-0.0440216
 20
-22.313
 11
0
 21
-22.2611
  0
LINE
  8
0
 10
0
 20
-22.2611
 11
0.0440216
 21
-22.313
  0
LINE
  8
0
 10
0.0440216
 20
-22.313
 11
0.502396
 21
-22.7566
  0
LINE
  8
0
 10
0.502396
 20
-22.7566
 11
1.00204
 21
-23.1531
  0
LINE
  8
0
 10
1.00204
 20
-23.1531
 11
1.53815
 21
-23.4988
  0
LINE
  8
0
 10
1.53815
 20
-23.4988
 11
2.10555
 21
-23.7902
  0
LINE
  8
0
 10
2.10555
 20
-23.7902
 11
2.69879
 21
-24.0247
  0
LINE
  8
0
 10
2.69879
 20
-24.0247
 11
3.31215
 21
-24.1998
  0
LINE
  8
0
 10
3.31215
 20
-24.1998
 11
3.93973
 21
-24.314
  0
LINE
  8
0
 10
3.93973
 20
-24.314
 11
4.57547
 21
-24.3661
  0
LINE
  8
0
 10
4.57547
 20
-24.3661
 11
5.21327
 21
-24.3557
  0
ENDSEC
  0
SECTION
  2
OBJECTS
  0
DICTIONARY
  0
ENDSEC
  0
EOF
