  0
SECTION
  2
BLOCKS
  0
ENDSEC
  0
SECTION
  2
ENTITIES
  0
LINE
  8
0
 10
5.21327
 20
-24.3557
 11
5.84697
 21
-24.2828
  0
LINE
  8
0
 10
5.84697
 20
-24.2828
 11
6.47047
 21
-24.1481
  0
LINE
  8
0
 10
6.47047
 20
-24.1481
 11
7.07777
 21
-23.953
  0
LINE
  8
0
 10
7.07777
 20
-23.953
 11
7.66302
 21
-23.6993
  0
LINE
  8
0
 10
7.66302
 20
-23.6993
 11
8.22058
 21
-23.3894
  0
LINE
  8
0
 10
8.22058
 20
-23.3894
 11
8.74509
 21
-23.0264
  0
LINE
  8
0
 10
8.74509
 20
-23.0264
 11
9.23149
 21
-22.6137
  0
LINE
  8
0
 10
9.23149
 20
-22.6137
 11
9.67511
 21
-22.1554
  0
LINE
  8
0
 10
9.67511
 20
-22.1554
 11
10.0717
 21
-21.6557
  0
LINE
  8
0
 10
10.0717
 20
-21.6557
 11
10.4173
 21
-21.1196
  0
LINE
  8
0
 10
10.4173
 20
-21.1196
 11
10.7088
 21
-20.5522
  0
LINE
  8
0
 10
10.7088
 20
-20.5522
 11
10.9432
 21
-19.959
  0
LINE
  8
0
 10
10.9432
 20
-19.959
 11
11.1183
 21
-19.3456
  0
LINE
  8
0
 10
11.1183
 20
-19.3456
 11
11.1305
 21
-19.2786
  0
LINE
  8
0
 10
11.1305
 20
-19.2786
 11
11.1946
 21
-19.3016
  0
LINE
  8
0
 10
11.1946
 20
-19.3016
 11
11.8134
 21
-19.4566
  0
LINE
  8
0
 10
11.8134
 20
-19.4566
 11
12.4444
 21
-19.5502
  0
LINE
  8
0
 10
12.4444
 20
-19.5502
 11
13.0815
 21
-19.5815
  0
LINE
  8
0
 10
13.0815
 20
-19.5815
 11
13.7186
 21
-19.5502
  0
LINE
  8
0
 10
13.7186
 20
-19.5502
 11
14.3495
 21
-19.4566
  0
LINE
  8
0
 10
14.3495
 20
-19.4566
 11
14.9683
 21
-19.3016
  0
LINE
  8
0
 10
14.9683
 20
-19.3016
 11
15.5689
 21
-19.0867
  0
LINE
  8
0
 10
15.5689
 20
-19.0867
 11
16.1456
 21
-18.8139
  0
LINE
  8
0
 10
16.1456
 20
-18.8139
 11
16.6927
 21
-18.486
  0
LINE
  8
0
 10
16.6927
 20
-18.486
 11
17.205
 21
-18.106
  0
LINE
  8
0
 10
17.205
 20
-18.106
 11
17.6777
 21
-17.6777
  0
LINE
  8
0
 10
17.6777
 20
-17.6777
 11
18.106
 21
-17.205
  0
LINE
  8
0
 10
18.106
 20
-17.205
 11
18.486
 21
-16.6927
  0
LINE
  8
0
 10
18.486
 20
-16.6927
 11
18.8139
 21
-16.1456
  0
LINE
  8
0
 10
18.8139
 20
-16.1456
 11
19.0867
 21
-15.5689
  0
LINE
  8
0
 10
19.0867
 20
-15.5689
 11
19.3016
 21
-14.9683
  0
LINE
  8
0
 10
19.3016
 20
-14.9683
 11
19.4566
 21
-14.3495
  0
LINE
  8
0
 10
19.4566
 20
-14.3495
 11
19.5502
 21
-13.7186
  0
LINE
  8
0
 10
19.5502
 20
-13.7186
 11
19.5815
 21
-13.0815
  0
LINE
  8
0
 10
19.5815
 20
-13.0815
 11
19.5502
 21
-12.4444
  0
LINE
  8
0
 10
19.5502
 20
-12.4444
 11
19.4566
 21
-11.8134
  0
LINE
  8
0
 10
19.4566
 20
-11.8134
 11
19.3016
 21
-11.1946
  0
LINE
  8
0
 10
19.3016
 20
-11.1946
 11
19.2786
 21
-11.1305
  0
LINE
  8
0
 10
19.2786
 20
-11.1305
 11
19.3456
 21
-11.1183
  0
LINE
  8
0
 10
19.3456
 20
-11.1183
 11
19.959
 21
-10.9432
  0
LINE
  8
0
 10
19.959
 20
-10.9432
 11
20.5522
 21
-10.7088
  0
LINE
  8
0
 10
20.5522
 20
-10.7088
 11
21.1196
 21
-10.4173
  0
LINE
  8
0
 10
21.1196
 20
-10.4173
 11
21.6557
 21
-10.0717
  0
LINE
  8
0
 10
21.6557
 20
-10.0717
 11
22.1554
 21
-9.67511
  0
LINE
  8
0
 10
22.1554
 20
-9.67511
 11
22.6137
 21
-9.23149
  0
LINE
  8
0
 10
22.6137
 20
-9.23149
 11
23.0264
 21
-8.74509
  0
LINE
  8
0
 10
23.0264
 20
-8.74509
 11
23.3894
 21
-8.22058
  0
LINE
  8
0
 10
23.3894
 20
-8.22058
 11
23.6993
 21
-7.66302
  0
LINE
  8
0
 10
23.6993
 20
-7.66302
 11
23.953
 21
-7.07777
  0
LINE
  8
0
 10
23.953
 20
-7.07777
 11
24.1481
 21
-6.47047
  0
LINE
  8
0
 10
24.1481
 20
-6.47047
 11
24.2828
 21
-5.84697
  0
LINE
  8
0
 10
24.2828
 20
-5.84697
 11
24.3557
 21
-5.21327
  0
LINE
  8
0
 10
24.3557
 20
-5.21327
 11
24.3661
 21
-4.57547
  0
LINE
  8
0
 10
24.3661
 20
-4.57547
 11
24.314
 21
-3.93973
  0
LINE
  8
0
 10
24.314
 20
-3.93973
 11
24.1998
 21
-3.31215
  0
LINE
  8
0
 10
24.1998
 20
-3.31215
 11
24.0247
 21
-2.69879
  0
LINE
  8
0
 10
24.0247
 20
-2.69879
 11
23.7902
 21
-2.10555
  0
LINE
  8
0
 10
23.7902
 20
-2.10555
 11
23.4988
 21
-1.53815
  0
LINE
  8
0
 10
23.4988
 20
-1.53815
 11
23.1531
 21
-1.00204
  0
LINE
  8
0
 10
23.1531
 20
-1.00204
 11
22.7566
 21
-0.502396
  0
LINE
  8
0
 10
22.7566
 20
-0.502396
 11
22.313
 21
-0.0440216
  0
LINE
  8
0
 10
22.313
 20
-0.0440216
 11
22.2611
 21
0
  0
LINE
  8
0
 10
22.2611
 20
0
 11
22.313
 21
0.0440216
  0
LINE
  8
0
 10
22.313
 20
0.0440216
 11
22.7566
 21
0.502396
  0
LINE
  8
0
 10
22.7566
 20
0.502396
 11
23.1531
 21
1.00204
  0
LINE
  8
0
 10
23.1531
 20
1.00204
 11
23.4988
 21
1.53815
  0
LINE
  8
0
 10
23.4988
 20
1.53815
 11
23.7902
 21
2.10555
  0
LINE
  8
0
 10
23.7902
 20
2.10555
 11
24.0247
 21
2.69879
  0
LINE
  8
0
 10
24.0247
 20
2.69879
 11
24.1998
 21
3.31215
  0
LINE
  8
0
 10
24.1998
 20
3.31215
 11
24.314
 21
3.93973
  0
LINE
  8
0
 10
24.314
 20
3.93973
 11
24.3661
 21
4.57547
  0
LINE
  8
0
 10
24.3661
 20
4.57547
 11
24.3557
 21
5.21327
  0
LINE
  8
0
 10
24.3557
 20
5.21327
 11
24.2828
 21
5.84697
  0
LINE
  8
0
 10
24.2828
 20
5.84697
 11
24.1481
 21
6.47047
  0
LINE
  8
0
 10
24.1481
 20
6.47047
 11
23.953
 21
7.07777
  0
LINE
  8
0
 10
23.953
 20
7.07777
 11
23.6993
 21
7.66302
  0
LINE
  8
0
 10
23.6993
 20
7.66302
 11
23.3894
 21
8.22058
  0
LINE
  8
0
 10
23.3894
 20
8.22058
 11
23.0264
 21
8.74509
  0
LINE
  8
0
 10
23.0264
 20
8.74509
 11
22.6137
 21
9.23149
  0
LINE
  8
0
 10
22.6137
 20
9.23149
 11
22.1554
 21
9.67511
  0
LINE
  8
0
 10
22.1554
 20
9.67511
 11
21.6557
 21
10.0717
  0
LINE
  8
0
 10
21.6557
 20
10.0717
 11
21.1196
 21
10.4173
  0
LINE
  8
0
 10
21.1196
 20
10.4173
 11
20.5522
 21
10.7088
  0
LINE
  8
0
 10
20.5522
 20
10.7088
 11
19.959
 21
10.9432
  0
LINE
  8
0
 10
19.959
 20
10.9432
 11
19.3456
 21
11.1183
  0
LINE
  8
0
 10
19.3456
 20
11.1183
 11
19.2786
 21
11.1305
  0
LINE
  8
0
 10
19.2786
 20
11.1305
 11
19.3016
 21
11.1946
  0
LINE
  8
0
 10
19.3016
 20
11.1946
 11
19.4566
 21
11.8134
  0
LINE
  8
0
 10
19.4566
 20
11.8134
 11
19.5502
 21
12.4444
  0
LINE
  8
0
 10
19.5502
 20
12.4444
 11
19.5815
 21
13.0815
  0
LINE
  8
0
 10
19.5815
 20
13.0815
 11
19.5502
 21
13.7186
  0
LINE
  8
0
 10
19.5502
 20
13.7186
 11
19.4566
 21
14.3495
  0
LINE
  8
0
 10
19.4566
 20
14.3495
 11
19.3016
 21
14.9683
  0
LINE
  8
0
 10
19.3016
 20
14.9683
 11
19.0867
 21
15.5689
  0
LINE
  8
0
 10
19.0867
 20
15.5689
 11
18.8139
 21
16.1456
  0
LINE
  8
0
 10
18.8139
 20
16.1456
 11
18.486
 21
16.6927
  0
LINE
  8
0
 10
18.486
 20
16.6927
 11
18.106
 21
17.205
  0
LINE
  8
0
 10
18.106
 20
17.205
 11
17.6777
 21
17.6777
  0
LINE
  8
0
 10
17.6777
 20
17.6777
 11
17.205
 21
18.106
  0
LINE
  8
0
 10
17.205
 20
18.106
 11
16.6927
 21
18.486
  0
LINE
  8
0
 10
16.6927
 20
18.486
 11
16.1456
 21
18.8139
  0
LINE
  8
0
 10
16.1456
 20
18.8139
 11
15.5689
 21
19.0867
  0
LINE
  8
0
 10
15.5689
 20
19.0867
 11
14.9683
 21
19.3016
  0
LINE
  8
0
 10
14.9683
 20
19.3016
 11
14.3495
 21
19.4566
  0
LINE
  8
0
 10
14.3495
 20
19.4566
 11
13.7186
 21
19.5502
  0
LINE
  8
0
 10
13.7186
 20
19.5502
 11
13.0815
 21
19.5815
  0
LINE
  8
0
 10
13.0815
 20
19.5815
 11
12.4444
 21
19.5502
  0
LINE
  8
0
 10
12.4444
 20
19.5502
 11
11.8134
 21
19.4566
  0
LINE
  8
0
 10
11.8134
 20
19.4566
 11
11.1946
 21
19.3016
  0
LINE
  8
0
 10
11.1946
 20
19.3016
 11
11.1305
 21
19.2786
  0
LINE
  8
0
 10
11.1305
 20
19.2786
 11
11.1183
 21
19.3456
  0
LINE
  8
0
 10
11.1183
 20
19.3456
 11
10.9432
 21
19.959
  0
LINE
  8
0
 10
10.9432
 20
19.959
 11
10.7088
 21
20.5522
  0
LINE
  8
0
 10
10.7088
 20
20.5522
 11
10.4173
 21
21.1196
  0
LINE
  8
0
 10
10.4173
 20
21.1196
 11
10.0717
 21
21.6557
  0
LINE
  8
0
 10
10.0717
 20
21.6557
 11
9.67511
 21
22.1554
  0
LINE
  8
0
 10
9.67511
 20
22.1554
 11
9.23149
 21
22.6137
  0
LINE
  8
0
 10
9.23149
 20
22.6137
 11
8.74509
 21
23.0264
  0
LINE
  8
0
 10
8.74509
 20
23.0264
 11
8.22058
 21
23.3894
  0
LINE
  8
0
 10
8.22058
 20
23.3894
 11
7.66302
 21
23.6993
  0
LINE
  8
0
 10
7.66302
 20
23.6993
 11
7.07777
 21
23.953
  0
LINE
  8
0
 10
7.07777
 20
23.953
 11
6.47047
 21
24.1481
  0
LINE
  8
0
 10
6.47047
 20
24.1481
 11
5.84697
 21
24.2828
  0
LINE
  8
0
 10
5.84697
 20
24.2828
 11
5.21327
 21
24.3557
  0
LINE
  8
0
 10
5.21327
 20
24.3557
 11
4.57547
 21
24.3661
  0
LINE
  8
0
 10
4.57547
 20
24.3661
 11
3.93973
 21
24.314
  0
LINE
  8
0
 10
3.93973
 20
24.314
 11
3.31215
 21
24.1998
  0
LINE
  8
0
 10
3.31215
 20
24.1998
 11
2.69879
 21
24.0247
  0
LINE
  8
0
 10
2.69879
 20
24.0247
 11
2.10555
 21
23.7902
  0
LINE
  8
0
 10
2.10555
 20
23.7902
 11
1.53815
 21
23.4988
  0
LINE
  8
0
 10
1.53815
 20
23.4988
 11
1.00204
 21
23.1531
  0
LINE
  8
0
 10
1.00204
 20
23.1531
 11
0.502396
 21
22.7566
  0
LINE
  8
0
 10
0.502396
 20
22.7566
 11
0.0440216
 21
22.313
  0
LINE
  8
0
 10
0.0440216
 20
22.313
 11
0
 21
22.2611
  0
LINE
  8
0
 10
0
 20
22.2611
 11
-0.0440216
 21
22.313
  0
LINE
  8
0
 10
-0.0440216
 20
22.313
 11
-0.502396
 21
22.7566
  0
LINE
  8
0
 10
-0.502396
 20
22.7566
 11
-1.00204
 21
23.1531
  0
LINE
  8
0
 10
-1.00204
 20
23.1531
 11
-1.53815
 21
23.4988
  0
LINE
  8
0
 10
-1.53815
 20
23.4988
 11
-2.10555
 21
23.7902
  0
LINE
  8
0
 10
-2.10555
 20
23.7902
 11
-2.69879
 21
24.0247
  0
LINE
  8
0
 10
-2.69879
 20
24.0247
 11
-3.31215
 21
24.1998
  0
LINE
  8
0
 10
-3.31215
 20
24.1998
 11
-3.93973
 21
24.314
  0
LINE
  8
0
 10
-3.93973
 20
24.314
 11
-4.57547
 21
24.3661
  0
LINE
  8
0
 10
-4.57547
 20
24.3661
 11
-5.21327
 21
24.3557
  0
LINE
  8
0
 10
-5.21327
 20
24.3557
 11
-5.84697
 21
24.2828
  0
LINE
  8
0
 10
-5.84697
 20
24.2828
 11
-6.47047
 21
24.1481
  0
LINE
  8
0
 10
-6.47047
 20
24.1481
 11
-7.07777
 21
23.953
  0
LINE
  8
0
 10
-7.07777
 20
23.953
 11
-7.66302
 21
23.6993
  0
LINE
  8
0
 10
-7.66302
 20
23.6993
 11
-8.22058
 21
23.3894
  0
LINE
  8
0
 10
-8.22058
 20
23.3894
 11
-8.74509
 21
23.0264
  0
LINE
  8
0
 10
-8.74509
 20
23.0264
 11
-9.23149
 21
22.6137
  0
LINE
  8
0
 10
-9.23149
 20
22.6137
 11
-9.67511
 21
22.1554
  0
LINE
  8
0
 10
-9.67511
 20
22.1554
 11
-10.0717
 21
21.6557
  0
LINE
  8
0
 10
-10.0717
 20
21.6557
 11
-10.4173
 21
21.1196
  0
LINE
  8
0
 10
-10.4173
 20
21.1196
 11
-10.7088
 21
20.5522
  0
LINE
  8
0
 10
-10.7088
 20
20.5522
 11
-10.9432
 21
19.959
  0
LINE
  8
0
 10
-10.9432
 20
19.959
 11
-11.1183
 21
19.3456
  0
LINE
  8
0
 10
-11.1183
 20
19.3456
 11
-11.1305
 21
19.2786
  0
LINE
  8
0
 10
-11.1305
 20
19.2786
 11
-11.1946
 21
19.3016
  0
LINE
  8
0
 10
-11.1946
 20
19.3016
 11
-11.8134
 21
19.4566
  0
LINE
  8
0
 10
-11.8134
 20
19.4566
 11
-12.4444
 21
19.5502
  0
LINE
  8
0
 10
-12.4444
 20
19.5502
 11
-13.0815
 21
19.5815
  0
LINE
  8
0
 10
-13.0815
 20
19.5815
 11
-13.7186
 21
19.5502
  0
LINE
  8
0
 10
-13.7186
 20
19.5502
 11
-14.3495
 21
19.4566
  0
LINE
  8
0
 10
-14.3495
 20
19.4566
 11
-14.9683
 21
19.3016
  0
LINE
  8
0
 10
-14.9683
 20
19.3016
 11
-15.5689
 21
19.0867
  0
LINE
  8
0
 10
-15.5689
 20
19.0867
 11
-16.1456
 21
18.8139
  0
LINE
  8
0
 10
-16.1456
 20
18.8139
 11
-16.6927
 21
18.486
  0
LINE
  8
0
 10
-16.6927
 20
18.486
 11
-17.205
 21
18.106
  0
LINE
  8
0
 10
-17.205
 20
18.106
 11
-17.6777
 21
17.6777
  0
LINE
  8
0
 10
-17.6777
 20
17.6777
 11
-18.106
 21
17.205
  0
LINE
  8
0
 10
-18.106
 20
17.205
 11
-18.486
 21
16.6927
  0
LINE
  8
0
 10
-18.486
 20
16.6927
 11
-18.8139
 21
16.1456
  0
LINE
  8
0
 10
-18.8139
 20
16.1456
 11
-19.0867
 21
15.5689
  0
LINE
  8
0
 10
-19.0867
 20
15.5689
 11
-19.3016
 21
14.9683
  0
LINE
  8
0
 10
-19.3016
 20
14.9683
 11
-19.4566
 21
14.3495
  0
LINE
  8
0
 10
-19.4566
 20
14.3495
 11
-19.5502
 21
13.7186
  0
LINE
  8
0
 10
-19.5502
 20
13.7186
 11
-19.5815
 21
13.0815
  0
LINE
  8
0
 10
-19.5815
 20
13.0815
 11
-19.5502
 21
12.4444
  0
LINE
  8
0
 10
-19.5502
 20
12.4444
 11
-19.4566
 21
11.8134
  0
LINE
  8
0
 10
-19.4566
 20
11.8134
 11
-19.3016
 21
11.1946
  0
LINE
  8
0
 10
-19.3016
 20
11.1946
 11
-19.2786
 21
11.1305
  0
LINE
  8
0
 10
-19.2786
 20
11.1305
 11
-19.3456
 21
11.1183
  0
LINE
  8
0
 10
-19.3456
 20
11.1183
 11
-19.959
 21
10.9432
  0
LINE
  8
0
 10
-19.959
 20
10.9432
 11
-20.5522
 21
10.7088
  0
LINE
  8
0
 10
-20.5522
 20
10.7088
 11
-21.1196
 21
10.4173
  0
LINE
  8
0
 10
-21.1196
 20
10.4173
 11
-21.6557
 21
10.0717
  0
LINE
  8
0
 10
-21.6557
 20
10.0717
 11
-22.1554
 21
9.67511
  0
LINE
  8
0
 10
-22.1554
 20
9.67511
 11
-22.6137
 21
9.23149
  0
LINE
  8
0
 10
-22.6137
 20
9.23149
 11
-23.0264
 21
8.74509
  0
LINE
  8
0
 10
-23.0264
 20
8.74509
 11
-23.3894
 21
8.22058
  0
LINE
  8
0
 10
-23.3894
 20
8.22058
 11
-23.6993
 21
7.66302
  0
LINE
  8
0
 10
-23.6993
 20
7.66302
 11
-23.953
 21
7.07777
  0
LINE
  8
0
 10
-23.953
 20
7.07777
 11
-24.1481
 21
6.47047
  0
LINE
  8
0
 10
-24.1481
 20
6.47047
 11
-24.2828
 21
5.84697
  0
LINE
  8
0
 10
-24.2828
 20
5.84697
 11
-24.3557
 21
5.21327
  0
LINE
  8
0
 10
-24.3557
 20
5.21327
 11
-24.3661
 21
4.57547
  0
LINE
  8
0
 10
-24.3661
 20
4.57547
 11
-24.314
 21
3.93973
  0
LINE
  8
0
 10
-24.314
 20
3.93973
 11
-24.1998
 21
3.31215
  0
LINE
  8
0
 10
-24.1998
 20
3.31215
 11
-24.0247
 21
2.69879
  0
LINE
  8
0
 10
-24.0247
 20
2.69879
 11
-23.7902
 21
2.10555
  0
LINE
  8
0
 10
-23.7902
 20
2.10555
 11
-23.4988
 21
1.53815
  0
LINE
  8
0
 10
-23.4988
 20
1.53815
 11
-23.1531
 21
1.00204
  0
LINE
  8
0
 10
-23.1531
 20
1.00204
 11
-22.7566
 21
0.502396
  0
LINE
  8
0
 10
-22.7566
 20
0.502396
 11
-22.313
 21
0.0440216
  0
LINE
  8
0
 10
-22.313
 20
0.0440216
 11
-22.2611
 21
0
  0
LINE
  8
0
 10
-22.2611
 20
0
 11
-22.313
 21
-0.0440216
  0
LINE
  8
0
 10
-22.313
 20
-0.0440216
 11
-22.7566
 21
-0.502396
  0
LINE
  8
0
 10
-22.7566
 20
-0.502396
 11
-23.1531
 21
-1.00204
  0
LINE
  8
0
 10
-23.1531
 20
-1.00204
 11
-23.4988
 21
-1.53815
  0
LINE
  8
0
 10
-23.4988
 20
-1.53815
 11
-23.7902
 21
-2.10555
  0
LINE
  8
0
 10
-23.7902
 20
-2.10555
 11
-24.0247
 21
-2.69879
  0
LINE
  8
0
 10
-24.0247
 20
-2.69879
 11
-24.1998
 21
-3.31215
  0
LINE
  8
0
 10
-24.1998
 20
-3.31215
 11
-24.314
 21
-3.93973
  0
LINE
  8
0
 10
-24.314
 20
-3.93973
 11
-24.3661
 21
-4.57547
  0
LINE
  8
0
 10
-24.3661
 20
-4.57547
 11
-24.3557
 21
-5.21327
  0
LINE
  8
0
 10
-24.3557
 20
-5.21327
 11
-24.2828
 21
-5.84697
  0
LINE
  8
0
 10
-24.2828
 20
-5.84697
 11
-24.1481
 21
-6.47047
  0
LINE
  8
0
 10
-24.1481
 20
-6.47047
 11
-23.953
 21
-7.07777
  0
LINE
  8
0
 10
-23.953
 20
-7.07777
 11
-23.6993
 21
-7.66302
  0
LINE
  8
0
 10
-23.6993
 20
-7.66302
 11
-23.3894
 21
-8.22058
  0
LINE
  8
0
 10
-23.3894
 20
-8.22058
 11
-23.0264
 21
-8.74509
  0
LINE
  8
0
 10
-23.0264
 20
-8.74509
 11
-22.6137
 21
-9.23149
  0
LINE
  8
0
 10
-22.6137
 20
-9.23149
 11
-22.1554
 21
-9.67511
  0
LINE
  8
0
 10
-22.1554
 20
-9.67511
 11
-21.6557
 21
-10.0717
  0
LINE
  8
0
 10
-21.6557
 20
-10.0717
 11
-21.1196
 21
-10.4173
  0
LINE
  8
0
 10
-21.1196
 20
-10.4173
 11
-20.5522
 21
-10.7088
  0
LINE
  8
0
 10
-20.5522
 20
-10.7088
 11
-19.959
 21
-10.9432
  0
LINE
  8
0
 10
-19.959
 20
-10.9432
 11
-19.3456
 21
-11.1183
  0
LINE
  8
0
 10
-19.3456
 20
-11.1183
 11
-19.2786
 21
-11.1305
  0
LINE
  8
0
 10
-19.2786
 20
-11.1305
 11
-19.3016
 21
-11.1946
  0
LINE
  8
0
 10
-19.3016
 20
-11.1946
 11
-19.4566
 21
-11.8134
  0
LINE
  8
0
 10
-19.4566
 20
-11.8134
 11
-19.5502
 21
-12.4444
  0
LINE
  8
0
 10
-19.5502
 20
-12.4444
 11
-19.5815
 21
-13.0815
  0
LINE
  8
0
 10
-19.5815
 20
-13.0815
 11
-19.5502
 21
-13.7186
  0
LINE
  8
0
 10
-19.5502
 20
-13.7186
 11
-19.4566
 21
-14.3495
  0
LINE
  8
0
 10
-19.4566
 20
-14.3495
 11
-19.3016
 21
-14.9683
  0
LINE
  8
0
 10
-19.3016
 20
-14.9683
 11
-19.0867
 21
-15.5689
  0
LINE
  8
0
 10
-19.0867
 20
-15.5689
 11
-18.8139
 21
-16.1456
  0
LINE
  8
0
 10
-18.8139
 20
-16.1456
 11
-18.486
 21
-16.6927
  0
LINE
  8
0
 10
-18.486
 20
-16.6927
 11
-18.106
 21
-17.205
  0
LINE
  8
0
 10
-18.106
 20
-17.205
 11
-17.6777
 21
-17.6777
  0
LINE
  8
0
 10
-17.6777
 20
-17.6777
 11
-17.205
 21
-18.106
  0
LINE
  8
0
 10
-17.205
 20
-18.106
 11
-16.6927
 21
-18.486
  0
LINE
  8
0
 10
-16.6927
 20
-18.486
 11
-16.1456
 21
-18.8139
  0
LINE
  8
0
 10
-16.1456
 20
-18.8139
 11
-15.5689
 21
-19.0867
  0
LINE
  8
0
 10
-15.5689
 20
-19.0867
 11
-14.9683
 21
-19.3016
  0
LINE
  8
0
 10
-14.9683
 20
-19.3016
 11
-14.3495
 21
-19.4566
  0
LINE
  8
0
 10
-14.3495
 20
-19.4566
 11
-13.7186
 21
-19.5502
  0
LINE
  8
0
 10
-13.7186
 20
-19.5502
 11
-13.0815
 21
-19.5815
  0
LINE
  8
0
 10
-13.0815
 20
-19.5815
 11
-12.4444
 21
-19.5502
  0
LINE
  8
0
 10
-12.4444
 20
-19.5502
 11
-11.8134
 21
-19.4566
  0
LINE
  8
0
 10
-11.8134
 20
-19.4566
 11
-11.1946
 21
-19.3016
  0
LINE
  8
0
 10
-11.1946
 20
-19.3016
 11
-11.1305
 21
-19.2786
  0
LINE
  8
0
 10
-11.1305
 20
-19.2786
 11
-11.1183
 21
-19.3456
  0
LINE
  8
0
 10
-11.1183
 20
-19.3456
 11
-10.9432
 21
-19.959
  0
LINE
  8
0
 10
-10.9432
 20
-19.959
 11
-10.7088
 21
-20.5522
  0
LINE
  8
0
 10
-10.7088
 20
-20.5522
 11
-10.4173
 21
-21.1196
  0
LINE
  8
0
 10
-10.4173
 20
-21.1196
 11
-10.0717
 21
-21.6557
  0
LINE
  8
0
 10
-10.0717
 20
-21.6557
 11
-9.67511
 21
-22.1554
  0
LINE
  8
0
 10
-9.67511
 20
-22.1554
 11
-9.23149
 21
-22.6137
  0
LINE
  8
0
 10
-9.23149
 20
-22.6137
 11
-8.74509
 21
-23.0264
  0
LINE
  8
0
 10
-8.74509
 20
-23.0264
 11
-8.22058
 21
-23.3894
  0
LINE
  8
0
 10
-8.22058
 20
-23.3894
 11
-7.66302
 21
-23.6993
  0
LINE
  8
0
 10
-7.66302
 20
-23.6993
 11
-7.07777
 21
-23.953
  0
LINE
  8
0
 10
-7.07777
 20
-23.953
 11
-6.47047
 21
-24.1481
  0
LINE
  8
0
 10
-6.47047
 20
-24.1481
 11
-5.84697
 21
-24.2828
  0
LINE
  8
0
 10
-5.84697
 20
-24.2828
 11
-5.21327
 21
-24.3557
  0
LINE
  8
0
 10
-5.21327
 20
-24.3557
 11
-4.57547
 21
-24.3661
  0
LINE
  8
0
 10
-4.57547
 20
-24.3661
 11
-3.93973
 21
-24.314
  0
LINE
  8
0
 10
-3.93973
 20
-24.314
 11
-3.31215
 21
-24.1998
  0
LINE
  8
0
 10
-3.31215
 20
-24.1998
 11
-2.69879
 21
-24.0247
  0
LINE
  8
0
 10
-2.69879
 20
-24.0247
 11
-2.10555
 21
-23.7902
  0
LINE
  8
0
 10
-2.10555
 20
-23.7902
 11
-1.53815
 21
-23.4988
  0
LINE
  8
0
 10
-1.53815
 20
-23.4988
 11
-1.00204
 21
-23.1531
  0
LINE
  8
0
 10
-1.00204
 20
-23.1531
 11
-0.502396
 21
-22.7566
  0
LINE
  8
0
 10
-0.502396
 20
-22.7566
 11
-0.0440216
 21
-22.313
  0
LINE
  8
0
 10
-0.0440216
 20
-22.313
 11
0
 21
-22.2611
  0
LINE
  8
0
 10
0
 20
-22.2611
 11
0.0440216
 21
-22.313
  0
LINE
  8
0
 10
0.0440216
 20
-22.313
 11
0.502396
 21
-22.7566
  0
LINE
  8
0
 10
0.502396
 20
-22.7566
 11
1.00204
 21
-23.1531
  0
LINE
  8
0
 10
1.00204
 20
-23.1531
 11
1.53815
 21
-23.4988
  0
LINE
  8
0
 10
1.53815
 20
-23.4988
 11
2.10555
 21
-23.7902
  0
LINE
  8
0
 10
2.10555
 20
-23.7902
 11
2.69879
 21
-24.0247
  0
LINE
  8
0
 10
2.69879
 20
-24.0247
 11
3.31215
 21
-24.1998
  0
LINE
  8
0
 10
3.31215
 20
-24.1998
 11
3.93973
 21
-24.314
  0
LINE
  8
0
 10
3.93973
 20
-24.314
 11
4.57547
 21
-24.3661
  0
LINE
  8
0
 10
4.57547
 20
-24.3661
 11
5.21327
 21
-24.3557
  0
LINE
  8
0
 10
5.79073
 20
21.2344
 11
5.74197
 21
21.24
  0
LINE
  8
0
 10
5.74197
 20
21.24
 11
5.69402
 21
21.2504
  0
LINE
  8
0
 10
5.69402
 20
21.2504
 11
5.64729
 21
21.2654
  0
LINE
  8
0
 10
5.64729
 20
21.2654
 11
5.60228
 21
21.2849
  0
LINE
  8
0
 10
5.60228
 20
21.2849
 11
5.55939
 21
21.3087
  0
LINE
  8
0
 10
5.55939
 20
21.3087
 11
5.51904
 21
21.3366
  0
LINE
  8
0
 10
5.51904
 20
21.3366
 11
5.48163
 21
21.3684
  0
LINE
  8
0
 10
5.48163
 20
21.3684
 11
5.44749
 21
21.4037
  0
LINE
  8
0
 10
5.44749
 20
21.4037
 11
5.41699
 21
21.4421
  0
LINE
  8
0
 10
5.41699
 20
21.4421
 11
5.39041
 21
21.4833
  0
LINE
  8
0
 10
5.39041
 20
21.4833
 11
5.368
 21
21.527
  0
LINE
  8
0
 10
5.368
 20
21.527
 11
5.34996
 21
21.5726
  0
LINE
  8
0
 10
5.34996
 20
21.5726
 11
5.33649
 21
21.6198
  0
LINE
  8
0
 10
5.33649
 20
21.6198
 11
5.3277
 21
21.6681
  0
LINE
  8
0
 10
5.3277
 20
21.6681
 11
5.32368
 21
21.717
  0
LINE
  8
0
 10
5.32368
 20
21.717
 11
5.32449
 21
21.766
  0
LINE
  8
0
 10
5.32449
 20
21.766
 11
5.33009
 21
21.8148
  0
LINE
  8
0
 10
5.33009
 20
21.8148
 11
5.34045
 21
21.8627
  0
LINE
  8
0
 10
5.34045
 20
21.8627
 11
5.35547
 21
21.9095
  0
LINE
  8
0
 10
5.35547
 20
21.9095
 11
5.37498
 21
21.9545
  0
LINE
  8
0
 10
5.37498
 20
21.9545
 11
5.39882
 21
21.9974
  0
LINE
  8
0
 10
5.39882
 20
21.9974
 11
5.42674
 21
22.0377
  0
LINE
  8
0
 10
5.42674
 20
22.0377
 11
5.4585
 21
22.0751
  0
LINE
  8
0
 10
5.4585
 20
22.0751
 11
5.49374
 21
22.1092
  0
LINE
  8
0
 10
5.49374
 20
22.1092
 11
5.53218
 21
22.1397
  0
LINE
  8
0
 10
5.53218
 20
22.1397
 11
5.57343
 21
22.1663
  0
LINE
  8
0
 10
5.57343
 20
22.1663
 11
5.61707
 21
22.1888
  0
LINE
  8
0
 10
5.61707
 20
22.1888
 11
5.6627
 21
22.2068
  0
LINE
  8
0
 10
5.6627
 20
22.2068
 11
5.70988
 21
22.2203
  0
LINE
  8
0
 10
5.70988
 20
22.2203
 11
5.75816
 21
22.229
  0
LINE
  8
0
 10
5.75816
 20
22.229
 11
5.80707
 21
22.2331
  0
LINE
  8
0
 10
5.80707
 20
22.2331
 11
5.85612
 21
22.2323
  0
LINE
  8
0
 10
5.85612
 20
22.2323
 11
5.90486
 21
22.2266
  0
LINE
  8
0
 10
5.90486
 20
22.2266
 11
5.95284
 21
22.2163
  0
LINE
  8
0
 10
5.95284
 20
22.2163
 11
5.99954
 21
22.2013
  0
LINE
  8
0
 10
5.99954
 20
22.2013
 11
6.04457
 21
22.1818
  0
LINE
  8
0
 10
6.04457
 20
22.1818
 11
6.08745
 21
22.1579
  0
LINE
  8
0
 10
6.08745
 20
22.1579
 11
6.12781
 21
22.13
  0
LINE
  8
0
 10
6.12781
 20
22.13
 11
6.16522
 21
22.0983
  0
LINE
  8
0
 10
6.16522
 20
22.0983
 11
6.19934
 21
22.063
  0
LINE
  8
0
 10
6.19934
 20
22.063
 11
6.22984
 21
22.0246
  0
LINE
  8
0
 10
6.22984
 20
22.0246
 11
6.25644
 21
21.9833
  0
LINE
  8
0
 10
6.25644
 20
21.9833
 11
6.27885
 21
21.9397
  0
LINE
  8
0
 10
6.27885
 20
21.9397
 11
6.29689
 21
21.894
  0
LINE
  8
0
 10
6.29689
 20
21.894
 11
6.31036
 21
21.8469
  0
LINE
  8
0
 10
6.31036
 20
21.8469
 11
6.31914
 21
21.7986
  0
LINE
  8
0
 10
6.31914
 20
21.7986
 11
6.32315
 21
21.7497
  0
LINE
  8
0
 10
6.32315
 20
21.7497
 11
6.32236
 21
21.7006
  0
LINE
  8
0
 10
6.32236
 20
21.7006
 11
6.31674
 21
21.6519
  0
LINE
  8
0
 10
6.31674
 20
21.6519
 11
6.30638
 21
21.6039
  0
LINE
  8
0
 10
6.30638
 20
21.6039
 11
6.29137
 21
21.5572
  0
LINE
  8
0
 10
6.29137
 20
21.5572
 11
6.27185
 21
21.5122
  0
LINE
  8
0
 10
6.27185
 20
21.5122
 11
6.24802
 21
21.4693
  0
LINE
  8
0
 10
6.24802
 20
21.4693
 11
6.22009
 21
21.4289
  0
LINE
  8
0
 10
6.22009
 20
21.4289
 11
6.18835
 21
21.3915
  0
LINE
  8
0
 10
6.18835
 20
21.3915
 11
6.15309
 21
21.3574
  0
LINE
  8
0
 10
6.15309
 20
21.3574
 11
6.11465
 21
21.3269
  0
LINE
  8
0
 10
6.11465
 20
21.3269
 11
6.07343
 21
21.3003
  0
LINE
  8
0
 10
6.07343
 20
21.3003
 11
6.02977
 21
21.2779
  0
LINE
  8
0
 10
6.02977
 20
21.2779
 11
5.98415
 21
21.2599
  0
LINE
  8
0
 10
5.98415
 20
21.2599
 11
5.93697
 21
21.2464
  0
LINE
  8
0
 10
5.93697
 20
21.2464
 11
5.88869
 21
21.2376
  0
LINE
  8
0
 10
5.88869
 20
21.2376
 11
5.83978
 21
21.2336
  0
LINE
  8
0
 10
5.83978
 20
21.2336
 11
5.79073
 21
21.2344
  0
LINE
  8
0
 10
-5.88869
 20
21.2376
 11
-5.93697
 21
21.2464
  0
LINE
  8
0
 10
-5.93697
 20
21.2464
 11
-5.98415
 21
21.2599
  0
LINE
  8
0
 10
-5.98415
 20
21.2599
 11
-6.02977
 21
21.2779
  0
LINE
  8
0
 10
-6.02977
 20
21.2779
 11
-6.07343
 21
21.3003
  0
LINE
  8
0
 10
-6.07343
 20
21.3003
 11
-6.11465
 21
21.3269
  0
LINE
  8
0
 10
-6.11465
 20
21.3269
 11
-6.15309
 21
21.3574
  0
LINE
  8
0
 10
-6.15309
 20
21.3574
 11
-6.18835
 21
21.3915
  0
LINE
  8
0
 10
-6.18835
 20
21.3915
 11
-6.22009
 21
21.4289
  0
LINE
  8
0
 10
-6.22009
 20
21.4289
 11
-6.24802
 21
21.4693
  0
LINE
  8
0
 10
-6.24802
 20
21.4693
 11
-6.27185
 21
21.5122
  0
LINE
  8
0
 10
-6.27185
 20
21.5122
 11
-6.29137
 21
21.5572
  0
LINE
  8
0
 10
-6.29137
 20
21.5572
 11
-6.30638
 21
21.6039
  0
LINE
  8
0
 10
-6.30638
 20
21.6039
 11
-6.31674
 21
21.6519
  0
LINE
  8
0
 10
-6.31674
 20
21.6519
 11
-6.32236
 21
21.7006
  0
LINE
  8
0
 10
-6.32236
 20
21.7006
 11
-6.32315
 21
21.7497
  0
LINE
  8
0
 10
-6.32315
 20
21.7497
 11
-6.31914
 21
21.7986
  0
LINE
  8
0
 10
-6.31914
 20
21.7986
 11
-6.31036
 21
21.8469
  0
LINE
  8
0
 10
-6.31036
 20
21.8469
 11
-6.29689
 21
21.894
  0
LINE
  8
0
 10
-6.29689
 20
21.894
 11
-6.27885
 21
21.9397
  0
LINE
  8
0
 10
-6.27885
 20
21.9397
 11
-6.25644
 21
21.9833
  0
LINE
  8
0
 10
-6.25644
 20
21.9833
 11
-6.22984
 21
22.0246
  0
LINE
  8
0
 10
-6.22984
 20
22.0246
 11
-6.19934
 21
22.063
  0
LINE
  8
0
 10
-6.19934
 20
22.063
 11
-6.16522
 21
22.0983
  0
LINE
  8
0
 10
-6.16522
 20
22.0983
 11
-6.12781
 21
22.13
  0
LINE
  8
0
 10
-6.12781
 20
22.13
 11
-6.08745
 21
22.1579
  0
LINE
  8
0
 10
-6.08745
 20
22.1579
 11
-6.04457
 21
22.1818
  0
LINE
  8
0
 10
-6.04457
 20
22.1818
 11
-5.99954
 21
22.2013
  0
LINE
  8
0
 10
-5.99954
 20
22.2013
 11
-5.95284
 21
22.2163
  0
LINE
  8
0
 10
-5.95284
 20
22.2163
 11
-5.90486
 21
22.2266
  0
LINE
  8
0
 10
-5.90486
 20
22.2266
 11
-5.85612
 21
22.2323
  0
LINE
  8
0
 10
-5.85612
 20
22.2323
 11
-5.80707
 21
22.2331
  0
LINE
  8
0
 10
-5.80707
 20
22.2331
 11
-5.75816
 21
22.229
  0
LINE
  8
0
 10
-5.75816
 20
22.229
 11
-5.70988
 21
22.2203
  0
LINE
  8
0
 10
-5.70988
 20
22.2203
 11
-5.6627
 21
22.2068
  0
LINE
  8
0
 10
-5.6627
 20
22.2068
 11
-5.61707
 21
22.1888
  0
LINE
  8
0
 10
-5.61707
 20
22.1888
 11
-5.57343
 21
22.1663
  0
LINE
  8
0
 10
-5.57343
 20
22.1663
 11
-5.53218
 21
22.1397
  0
LINE
  8
0
 10
-5.53218
 20
22.1397
 11
-5.49374
 21
22.1092
  0
LINE
  8
0
 10
-5.49374
 20
22.1092
 11
-5.4585
 21
22.0751
  0
LINE
  8
0
 10
-5.4585
 20
22.0751
 11
-5.42674
 21
22.0377
  0
LINE
  8
0
 10
-5.42674
 20
22.0377
 11
-5.39882
 21
21.9974
  0
LINE
  8
0
 10
-5.39882
 20
21.9974
 11
-5.37498
 21
21.9545
  0
LINE
  8
0
 10
-5.37498
 20
21.9545
 11
-5.35547
 21
21.9095
  0
LINE
  8
0
 10
-5.35547
 20
21.9095
 11
-5.34045
 21
21.8627
  0
LINE
  8
0
 10
-5.34045
 20
21.8627
 11
-5.33009
 21
21.8148
  0
LINE
  8
0
 10
-5.33009
 20
21.8148
 11
-5.32449
 21
21.766
  0
LINE
  8
0
 10
-5.32449
 20
21.766
 11
-5.32368
 21
21.717
  0
LINE
  8
0
 10
-5.32368
 20
21.717
 11
-5.3277
 21
21.6681
  0
LINE
  8
0
 10
-5.3277
 20
21.6681
 11
-5.33649
 21
21.6198
  0
LINE
  8
0
 10
-5.33649
 20
21.6198
 11
-5.34996
 21
21.5726
  0
LINE
  8
0
 10
-5.34996
 20
21.5726
 11
-5.368
 21
21.527
  0
LINE
  8
0
 10
-5.368
 20
21.527
 11
-5.39041
 21
21.4833
  0
LINE
  8
0
 10
-5.39041
 20
21.4833
 11
-5.41699
 21
21.4421
  0
LINE
  8
0
 10
-5.41699
 20
21.4421
 11
-5.44749
 21
21.4037
  0
LINE
  8
0
 10
-5.44749
 20
21.4037
 11
-5.48163
 21
21.3684
  0
LINE
  8
0
 10
-5.48163
 20
21.3684
 11
-5.51904
 21
21.3366
  0
LINE
  8
0
 10
-5.51904
 20
21.3366
 11
-5.55939
 21
21.3087
  0
LINE
  8
0
 10
-5.55939
 20
21.3087
 11
-5.60228
 21
21.2849
  0
LINE
  8
0
 10
-5.60228
 20
21.2849
 11
-5.64729
 21
21.2654
  0
LINE
  8
0
 10
-5.64729
 20
21.2654
 11
-5.69402
 21
21.2504
  0
LINE
  8
0
 10
-5.69402
 20
21.2504
 11
-5.74197
 21
21.24
  0
LINE
  8
0
 10
-5.74197
 20
21.24
 11
-5.79073
 21
21.2344
  0
LINE
  8
0
 10
-5.79073
 20
21.2344
 11
-5.83978
 21
21.2336
  0
LINE
  8
0
 10
-5.83978
 20
21.2336
 11
-5.88869
 21
21.2376
  0
LINE
  8
0
 10
-15.9589
 20
15.4123
 11
-16.0074
 21
15.4195
  0
LINE
  8
0
 10
-16.0074
 20
15.4195
 11
-16.055
 21
15.4314
  0
LINE
  8
0
 10
-16.055
 20
15.4314
 11
-16.1012
 21
15.448
  0
LINE
  8
0
 10
-16.1012
 20
15.448
 11
-16.1456
 21
15.4689
  0
LINE
  8
0
 10
-16.1456
 20
15.4689
 11
-16.1877
 21
15.4942
  0
LINE
  8
0
 10
-16.1877
 20
15.4942
 11
-16.2271
 21
15.5234
  0
LINE
  8
0
 10
-16.2271
 20
15.5234
 11
-16.2634
 21
15.5563
  0
LINE
  8
0
 10
-16.2634
 20
15.5563
 11
-16.2964
 21
15.5927
  0
LINE
  8
0
 10
-16.2964
 20
15.5927
 11
-16.3256
 21
15.6321
  0
LINE
  8
0
 10
-16.3256
 20
15.6321
 11
-16.3509
 21
15.6742
  0
LINE
  8
0
 10
-16.3509
 20
15.6742
 11
-16.3718
 21
15.7186
  0
LINE
  8
0
 10
-16.3718
 20
15.7186
 11
-16.3884
 21
15.7648
  0
LINE
  8
0
 10
-16.3884
 20
15.7648
 11
-16.4003
 21
15.8123
  0
LINE
  8
0
 10
-16.4003
 20
15.8123
 11
-16.4075
 21
15.8609
  0
LINE
  8
0
 10
-16.4075
 20
15.8609
 11
-16.4099
 21
15.9099
  0
LINE
  8
0
 10
-16.4099
 20
15.9099
 11
-16.4075
 21
15.9589
  0
LINE
  8
0
 10
-16.4075
 20
15.9589
 11
-16.4003
 21
16.0074
  0
LINE
  8
0
 10
-16.4003
 20
16.0074
 11
-16.3884
 21
16.055
  0
LINE
  8
0
 10
-16.3884
 20
16.055
 11
-16.3718
 21
16.1012
  0
LINE
  8
0
 10
-16.3718
 20
16.1012
 11
-16.3509
 21
16.1456
  0
LINE
  8
0
 10
-16.3509
 20
16.1456
 11
-16.3256
 21
16.1877
  0
LINE
  8
0
 10
-16.3256
 20
16.1877
 11
-16.2964
 21
16.2271
  0
LINE
  8
0
 10
-16.2964
 20
16.2271
 11
-16.2634
 21
16.2634
  0
LINE
  8
0
 10
-16.2634
 20
16.2634
 11
-16.2271
 21
16.2964
  0
LINE
  8
0
 10
-16.2271
 20
16.2964
 11
-16.1877
 21
16.3256
  0
LINE
  8
0
 10
-16.1877
 20
16.3256
 11
-16.1456
 21
16.3509
  0
LINE
  8
0
 10
-16.1456
 20
16.3509
 11
-16.1012
 21
16.3718
  0
LINE
  8
0
 10
-16.1012
 20
16.3718
 11
-16.055
 21
16.3884
  0
LINE
  8
0
 10
-16.055
 20
16.3884
 11
-16.0074
 21
16.4003
  0
LINE
  8
0
 10
-16.0074
 20
16.4003
 11
-15.9589
 21
16.4075
  0
LINE
  8
0
 10
-15.9589
 20
16.4075
 11
-15.9099
 21
16.4099
  0
LINE
  8
0
 10
-15.9099
 20
16.4099
 11
-15.8609
 21
16.4075
  0
LINE
  8
0
 10
-15.8609
 20
16.4075
 11
-15.8123
 21
16.4003
  0
LINE
  8
0
 10
-15.8123
 20
16.4003
 11
-15.7648
 21
16.3884
  0
LINE
  8
0
 10
-15.7648
 20
16.3884
 11
-15.7186
 21
16.3718
  0
LINE
  8
0
 10
-15.7186
 20
16.3718
 11
-15.6742
 21
16.3509
  0
LINE
  8
0
 10
-15.6742
 20
16.3509
 11
-15.6321
 21
16.3256
  0
LINE
  8
0
 10
-15.6321
 20
16.3256
 11
-15.5927
 21
16.2964
  0
LINE
  8
0
 10
-15.5927
 20
16.2964
 11
-15.5563
 21
16.2634
  0
LINE
  8
0
 10
-15.5563
 20
16.2634
 11
-15.5234
 21
16.2271
  0
LINE
  8
0
 10
-15.5234
 20
16.2271
 11
-15.4942
 21
16.1877
  0
LINE
  8
0
 10
-15.4942
 20
16.1877
 11
-15.4689
 21
16.1456
  0
LINE
  8
0
 10
-15.4689
 20
16.1456
 11
-15.448
 21
16.1012
  0
LINE
  8
0
 10
-15.448
 20
16.1012
 11
-15.4314
 21
16.055
  0
LINE
  8
0
 10
-15.4314
 20
16.055
 11
-15.4195
 21
16.0074
  0
LINE
  8
0
 10
-15.4195
 20
16.0074
 11
-15.4123
 21
15.9589
  0
LINE
  8
0
 10
-15.4123
 20
15.9589
 11
-15.4099
 21
15.9099
  0
LINE
  8
0
 10
-15.4099
 20
15.9099
 11
-15.4123
 21
15.8609
  0
LINE
  8
0
 10
-15.4123
 20
15.8609
 11
-15.4195
 21
15.8123
  0
LINE
  8
0
 10
-15.4195
 20
15.8123
 11
-15.4314
 21
15.7648
  0
LINE
  8
0
 10
-15.4314
 20
15.7648
 11
-15.448
 21
15.7186
  0
LINE
  8
0
 10
-15.448
 20
15.7186
 11
-15.4689
 21
15.6742
  0
LINE
  8
0
 10
-15.4689
 20
15.6742
 11
-15.4942
 21
15.6321
  0
LINE
  8
0
 10
-15.4942
 20
15.6321
 11
-15.5234
 21
15.5927
  0
LINE
  8
0
 10
-15.5234
 20
15.5927
 11
-15.5563
 21
15.5563
  0
LINE
  8
0
 10
-15.5563
 20
15.5563
 11
-15.5927
 21
15.5234
  0
LINE
  8
0
 10
-15.5927
 20
15.5234
 11
-15.6321
 21
15.4942
  0
LINE
  8
0
 10
-15.6321
 20
15.4942
 11
-15.6742
 21
15.4689
  0
LINE
  8
0
 10
-15.6742
 20
15.4689
 11
-15.7186
 21
15.448
  0
LINE
  8
0
 10
-15.7186
 20
15.448
 11
-15.7648
 21
15.4314
  0
LINE
  8
0
 10
-15.7648
 20
15.4314
 11
-15.8123
 21
15.4195
  0
LINE
  8
0
 10
-15.8123
 20
15.4195
 11
-15.8609
 21
15.4123
  0
LINE
  8
0
 10
-15.8609
 20
15.4123
 11
-15.9099
 21
15.4099
  0
LINE
  8
0
 10
-15.9099
 20
15.4099
 11
-15.9589
 21
15.4123
  0
LINE
  8
0
 10
15.8609
 20
15.4123
 11
15.8123
 21
15.4195
  0
LINE
  8
0
 10
15.8123
 20
15.4195
 11
15.7648
 21
15.4314
  0
LINE
  8
0
 10
15.7648
 20
15.4314
 11
15.7186
 21
15.448
  0
LINE
  8
0
 10
15.7186
 20
15.448
 11
15.6742
 21
15.4689
  0
LINE
  8
0
 10
15.6742
 20
15.4689
 11
15.6321
 21
15.4942
  0
LINE
  8
0
 10
15.6321
 20
15.4942
 11
15.5927
 21
15.5234
  0
LINE
  8
0
 10
15.5927
 20
15.5234
 11
15.5563
 21
15.5563
  0
LINE
  8
0
 10
15.5563
 20
15.5563
 11
15.5234
 21
15.5927
  0
LINE
  8
0
 10
15.5234
 20
15.5927
 11
15.4942
 21
15.6321
  0
LINE
  8
0
 10
15.4942
 20
15.6321
 11
15.4689
 21
15.6742
  0
LINE
  8
0
 10
15.4689
 20
15.6742
 11
15.448
 21
15.7186
  0
LINE
  8
0
 10
15.448
 20
15.7186
 11
15.4314
 21
15.7648
  0
LINE
  8
0
 10
15.4314
 20
15.7648
 11
15.4195
 21
15.8123
  0
LINE
  8
0
 10
15.4195
 20
15.8123
 11
15.4123
 21
15.8609
  0
LINE
  8
0
 10
15.4123
 20
15.8609
 11
15.4099
 21
15.9099
  0
LINE
  8
0
 10
15.4099
 20
15.9099
 11
15.4123
 21
15.9589
  0
LINE
  8
0
 10
15.4123
 20
15.9589
 11
15.4195
 21
16.0074
  0
LINE
  8
0
 10
15.4195
 20
16.0074
 11
15.4314
 21
16.055
  0
LINE
  8
0
 10
15.4314
 20
16.055
 11
15.448
 21
16.1012
  0
LINE
  8
0
 10
15.448
 20
16.1012
 11
15.4689
 21
16.1456
  0
LINE
  8
0
 10
15.4689
 20
16.1456
 11
15.4942
 21
16.1877
  0
LINE
  8
0
 10
15.4942
 20
16.1877
 11
15.5234
 21
16.2271
  0
LINE
  8
0
 10
15.5234
 20
16.2271
 11
15.5563
 21
16.2634
  0
LINE
  8
0
 10
15.5563
 20
16.2634
 11
15.5927
 21
16.2964
  0
LINE
  8
0
 10
15.5927
 20
16.2964
 11
15.6321
 21
16.3256
  0
LINE
  8
0
 10
15.6321
 20
16.3256
 11
15.6742
 21
16.3509
  0
LINE
  8
0
 10
15.6742
 20
16.3509
 11
15.7186
 21
16.3718
  0
LINE
  8
0
 10
15.7186
 20
16.3718
 11
15.7648
 21
16.3884
  0
LINE
  8
0
 10
15.7648
 20
16.3884
 11
15.8123
 21
16.4003
  0
LINE
  8
0
 10
15.8123
 20
16.4003
 11
15.8609
 21
16.4075
  0
LINE
  8
0
 10
15.8609
 20
16.4075
 11
15.9099
 21
16.4099
  0
LINE
  8
0
 10
15.9099
 20
16.4099
 11
15.9589
 21
16.4075
  0
LINE
  8
0
 10
15.9589
 20
16.4075
 11
16.0074
 21
16.4003
  0
LINE
  8
0
 10
16.0074
 20
16.4003
 11
16.055
 21
16.3884
  0
LINE
  8
0
 10
16.055
 20
16.3884
 11
16.1012
 21
16.3718
  0
LINE
  8
0
 10
16.1012
 20
16.3718
 11
16.1456
 21
16.3509
  0
LINE
  8
0
 10
16.1456
 20
16.3509
 11
16.1877
 21
16.3256
  0
LINE
  8
0
 10
16.1877
 20
16.3256
 11
16.2271
 21
16.2964
  0
LINE
  8
0
 10
16.2271
 20
16.2964
 11
16.2634
 21
16.2634
  0
LINE
  8
0
 10
16.2634
 20
16.2634
 11
16.2964
 21
16.2271
  0
LINE
  8
0
 10
16.2964
 20
16.2271
 11
16.3256
 21
16.1877
  0
LINE
  8
0
 10
16.3256
 20
16.1877
 11
16.3509
 21
16.1456
  0
LINE
  8
0
 10
16.3509
 20
16.1456
 11
16.3718
 21
16.1012
  0
LINE
  8
0
 10
16.3718
 20
16.1012
 11
16.3884
 21
16.055
  0
LINE
  8
0
 10
16.3884
 20
16.055
 11
16.4003
 21
16.0074
  0
LINE
  8
0
 10
16.4003
 20
16.0074
 11
16.4075
 21
15.9589
  0
LINE
  8
0
 10
16.4075
 20
15.9589
 11
16.4099
 21
15.9099
  0
LINE
  8
0
 10
16.4099
 20
15.9099
 11
16.4075
 21
15.8609
  0
LINE
  8
0
 10
16.4075
 20
15.8609
 11
16.4003
 21
15.8123
  0
LINE
  8
0
 10
16.4003
 20
15.8123
 11
16.3884
 21
15.7648
  0
LINE
  8
0
 10
16.3884
 20
15.7648
 11
16.3718
 21
15.7186
  0
LINE
  8
0
 10
16.3718
 20
15.7186
 11
16.3509
 21
15.6742
  0
LINE
  8
0
 10
16.3509
 20
15.6742
 11
16.3256
 21
15.6321
  0
LINE
  8
0
 10
16.3256
 20
15.6321
 11
16.2964
 21
15.5927
  0
LINE
  8
0
 10
16.2964
 20
15.5927
 11
16.2634
 21
15.5563
  0
LINE
  8
0
 10
16.2634
 20
15.5563
 11
16.2271
 21
15.5234
  0
LINE
  8
0
 10
16.2271
 20
15.5234
 11
16.1877
 21
15.4942
  0
LINE
  8
0
 10
16.1877
 20
15.4942
 11
16.1456
 21
15.4689
  0
LINE
  8
0
 10
16.1456
 20
15.4689
 11
16.1012
 21
15.448
  0
LINE
  8
0
 10
16.1012
 20
15.448
 11
16.055
 21
15.4314
  0
LINE
  8
0
 10
16.055
 20
15.4314
 11
16.0074
 21
15.4195
  0
LINE
  8
0
 10
16.0074
 20
15.4195
 11
15.9589
 21
15.4123
  0
LINE
  8
0
 10
15.9589
 20
15.4123
 11
15.9099
 21
15.4099
  0
LINE
  8
0
 10
15.9099
 20
15.4099
 11
15.8609
 21
15.4123
  0
LINE
  8
0
 10
-21.766
 20
5.32449
 11
-21.8148
 21
5.33009
  0
LINE
  8
0
 10
-21.8148
 20
5.33009
 11
-21.8627
 21
5.34045
  0
LINE
  8
0
 10
-21.8627
 20
5.34045
 11
-21.9095
 21
5.35547
  0
LINE
  8
0
 10
-21.9095
 20
5.35547
 11
-21.9545
 21
5.37498
  0
LINE
  8
0
 10
-21.9545
 20
5.37498
 11
-21.9974
 21
5.39882
  0
LINE
  8
0
 10
-21.9974
 20
5.39882
 11
-22.0377
 21
5.42674
  0
LINE
  8
0
 10
-22.0377
 20
5.42674
 11
-22.0751
 21
5.4585
  0
LINE
  8
0
 10
-22.0751
 20
5.4585
 11
-22.1092
 21
5.49374
  0
LINE
  8
0
 10
-22.1092
 20
5.49374
 11
-22.1397
 21
5.53218
  0
LINE
  8
0
 10
-22.1397
 20
5.53218
 11
-22.1663
 21
5.57343
  0
LINE
  8
0
 10
-22.1663
 20
5.57343
 11
-22.1888
 21
5.61707
  0
LINE
  8
0
 10
-22.1888
 20
5.61707
 11
-22.2068
 21
5.6627
  0
LINE
  8
0
 10
-22.2068
 20
5.6627
 11
-22.2203
 21
5.70988
  0
LINE
  8
0
 10
-22.2203
 20
5.70988
 11
-22.229
 21
5.75816
  0
LINE
  8
0
 10
-22.229
 20
5.75816
 11
-22.2331
 21
5.80707
  0
LINE
  8
0
 10
-22.2331
 20
5.80707
 11
-22.2323
 21
5.85612
  0
LINE
  8
0
 10
-22.2323
 20
5.85612
 11
-22.2266
 21
5.90486
  0
LINE
  8
0
 10
-22.2266
 20
5.90486
 11
-22.2163
 21
5.95284
  0
LINE
  8
0
 10
-22.2163
 20
5.95284
 11
-22.2013
 21
5.99954
  0
LINE
  8
0
 10
-22.2013
 20
5.99954
 11
-22.1818
 21
6.04457
  0
LINE
  8
0
 10
-22.1818
 20
6.04457
 11
-22.1579
 21
6.08745
  0
LINE
  8
0
 10
-22.1579
 20
6.08745
 11
-22.13
 21
6.12781
  0
LINE
  8
0
 10
-22.13
 20
6.12781
 11
-22.0983
 21
6.16522
  0
LINE
  8
0
 10
-22.0983
 20
6.16522
 11
-22.063
 21
6.19934
  0
LINE
  8
0
 10
-22.063
 20
6.19934
 11
-22.0246
 21
6.22984
  0
LINE
  8
0
 10
-22.0246
 20
6.22984
 11
-21.9833
 21
6.25644
  0
LINE
  8
0
 10
-21.9833
 20
6.25644
 11
-21.9397
 21
6.27885
  0
LINE
  8
0
 10
-21.9397
 20
6.27885
 11
-21.894
 21
6.29689
  0
LINE
  8
0
 10
-21.894
 20
6.29689
 11
-21.8469
 21
6.31036
  0
LINE
  8
0
 10
-21.8469
 20
6.31036
 11
-21.7986
 21
6.31914
  0
LINE
  8
0
 10
-21.7986
 20
6.31914
 11
-21.7497
 21
6.32315
  0
LINE
  8
0
 10
-21.7497
 20
6.32315
 11
-21.7006
 21
6.32236
  0
LINE
  8
0
 10
-21.7006
 20
6.32236
 11
-21.6519
 21
6.31674
  0
LINE
  8
0
 10
-21.6519
 20
6.31674
 11
-21.6039
 21
6.30638
  0
LINE
  8
0
 10
-21.6039
 20
6.30638
 11
-21.5572
 21
6.29137
  0
LINE
  8
0
 10
-21.5572
 20
6.29137
 11
-21.5122
 21
6.27185
  0
LINE
  8
0
 10
-21.5122
 20
6.27185
 11
-21.4693
 21
6.24802
  0
LINE
  8
0
 10
-21.4693
 20
6.24802
 11
-21.4289
 21
6.22009
  0
LINE
  8
0
 10
-21.4289
 20
6.22009
 11
-21.3915
 21
6.18835
  0
LINE
  8
0
 10
-21.3915
 20
6.18835
 11
-21.3574
 21
6.15309
  0
LINE
  8
0
 10
-21.3574
 20
6.15309
 11
-21.3269
 21
6.11465
  0
LINE
  8
0
 10
-21.3269
 20
6.11465
 11
-21.3003
 21
6.07343
  0
LINE
  8
0
 10
-21.3003
 20
6.07343
 11
-21.2779
 21
6.02977
  0
LINE
  8
0
 10
-21.2779
 20
6.02977
 11
-21.2599
 21
5.98415
  0
LINE
  8
0
 10
-21.2599
 20
5.98415
 11
-21.2464
 21
5.93697
  0
LINE
  8
0
 10
-21.2464
 20
5.93697
 11
-21.2376
 21
5.88869
  0
LINE
  8
0
 10
-21.2376
 20
5.88869
 11
-21.2336
 21
5.83978
  0
LINE
  8
0
 10
-21.2336
 20
5.83978
 11
-21.2344
 21
5.79073
  0
LINE
  8
0
 10
-21.2344
 20
5.79073
 11
-21.24
 21
5.74197
  0
LINE
  8
0
 10
-21.24
 20
5.74197
 11
-21.2504
 21
5.69402
  0
LINE
  8
0
 10
-21.2504
 20
5.69402
 11
-21.2654
 21
5.64729
  0
LINE
  8
0
 10
-21.2654
 20
5.64729
 11
-21.2849
 21
5.60228
  0
LINE
  8
0
 10
-21.2849
 20
5.60228
 11
-21.3087
 21
5.55939
  0
LINE
  8
0
 10
-21.3087
 20
5.55939
 11
-21.3366
 21
5.51904
  0
LINE
  8
0
 10
-21.3366
 20
5.51904
 11
-21.3684
 21
5.48163
  0
LINE
  8
0
 10
-21.3684
 20
5.48163
 11
-21.4037
 21
5.44749
  0
LINE
  8
0
 10
-21.4037
 20
5.44749
 11
-21.4421
 21
5.41699
  0
LINE
  8
0
 10
-21.4421
 20
5.41699
 11
-21.4833
 21
5.39041
  0
LINE
  8
0
 10
-21.4833
 20
5.39041
 11
-21.527
 21
5.368
  0
LINE
  8
0
 10
-21.527
 20
5.368
 11
-21.5726
 21
5.34996
  0
LINE
  8
0
 10
-21.5726
 20
5.34996
 11
-21.6198
 21
5.33649
  0
LINE
  8
0
 10
-21.6198
 20
5.33649
 11
-21.6681
 21
5.3277
  0
LINE
  8
0
 10
-21.6681
 20
5.3277
 11
-21.717
 21
5.32368
  0
LINE
  8
0
 10
-21.717
 20
5.32368
 11
-21.766
 21
5.32449
  0
LINE
  8
0
 10
21.6681
 20
5.3277
 11
21.6198
 21
5.33649
  0
LINE
  8
0
 10
21.6198
 20
5.33649
 11
21.5726
 21
5.34996
  0
LINE
  8
0
 10
21.5726
 20
5.34996
 11
21.527
 21
5.368
  0
LINE
  8
0
 10
21.527
 20
5.368
 11
21.4833
 21
5.39041
  0
LINE
  8
0
 10
21.4833
 20
5.39041
 11
21.4421
 21
5.41699
  0
LINE
  8
0
 10
21.4421
 20
5.41699
 11
21.4037
 21
5.44749
  0
LINE
  8
0
 10
21.4037
 20
5.44749
 11
21.3684
 21
5.48163
  0
LINE
  8
0
 10
21.3684
 20
5.48163
 11
21.3366
 21
5.51904
  0
LINE
  8
0
 10
21.3366
 20
5.51904
 11
21.3087
 21
5.55939
  0
LINE
  8
0
 10
21.3087
 20
5.55939
 11
21.2849
 21
5.60228
  0
LINE
  8
0
 10
21.2849
 20
5.60228
 11
21.2654
 21
5.64729
  0
LINE
  8
0
 10
21.2654
 20
5.64729
 11
21.2504
 21
5.69402
  0
LINE
  8
0
 10
21.2504
 20
5.69402
 11
21.24
 21
5.74197
  0
LINE
  8
0
 10
21.24
 20
5.74197
 11
21.2344
 21
5.79073
  0
LINE
  8
0
 10
21.2344
 20
5.79073
 11
21.2336
 21
5.83978
  0
LINE
  8
0
 10
21.2336
 20
5.83978
 11
21.2376
 21
5.88869
  0
LINE
  8
0
 10
21.2376
 20
5.88869
 11
21.2464
 21
5.93697
  0
LINE
  8
0
 10
21.2464
 20
5.93697
 11
21.2599
 21
5.98415
  0
LINE
  8
0
 10
21.2599
 20
5.98415
 11
21.2779
 21
6.02977
  0
LINE
  8
0
 10
21.2779
 20
6.02977
 11
21.3003
 21
6.07343
  0
LINE
  8
0
 10
21.3003
 20
6.07343
 11
21.3269
 21
6.11465
  0
LINE
  8
0
 10
21.3269
 20
6.11465
 11
21.3574
 21
6.15309
  0
LINE
  8
0
 10
21.3574
 20
6.15309
 11
21.3915
 21
6.18835
  0
LINE
  8
0
 10
21.3915
 20
6.18835
 11
21.4289
 21
6.22009
  0
LINE
  8
0
 10
21.4289
 20
6.22009
 11
21.4693
 21
6.24802
  0
LINE
  8
0
 10
21.4693
 20
6.24802
 11
21.5122
 21
6.27185
  0
LINE
  8
0
 10
21.5122
 20
6.27185
 11
21.5572
 21
6.29137
  0
LINE
  8
0
 10
21.5572
 20
6.29137
 11
21.6039
 21
6.30638
  0
LINE
  8
0
 10
21.6039
 20
6.30638
 11
21.6519
 21
6.31674
  0
LINE
  8
0
 10
21.6519
 20
6.31674
 11
21.7006
 21
6.32236
  0
LINE
  8
0
 10
21.7006
 20
6.32236
 11
21.7497
 21
6.32315
  0
LINE
  8
0
 10
21.7497
 20
6.32315
 11
21.7986
 21
6.31914
  0
LINE
  8
0
 10
21.7986
 20
6.31914
 11
21.8469
 21
6.31036
  0
LINE
  8
0
 10
21.8469
 20
6.31036
 11
21.894
 21
6.29689
  0
LINE
  8
0
 10
21.894
 20
6.29689
 11
21.9397
 21
6.27885
  0
LINE
  8
0
 10
21.9397
 20
6.27885
 11
21.9833
 21
6.25644
  0
LINE
  8
0
 10
21.9833
 20
6.25644
 11
22.0246
 21
6.22984
  0
LINE
  8
0
 10
22.0246
 20
6.22984
 11
22.063
 21
6.19934
  0
LINE
  8
0
 10
22.063
 20
6.19934
 11
22.0983
 21
6.16522
  0
LINE
  8
0
 10
22.0983
 20
6.16522
 11
22.13
 21
6.12781
  0
LINE
  8
0
 10
22.13
 20
6.12781
 11
22.1579
 21
6.08745
  0
LINE
  8
0
 10
22.1579
 20
6.08745
 11
22.1818
 21
6.04457
  0
LINE
  8
0
 10
22.1818
 20
6.04457
 11
22.2013
 21
5.99954
  0
LINE
  8
0
 10
22.2013
 20
5.99954
 11
22.2163
 21
5.95284
  0
LINE
  8
0
 10
22.2163
 20
5.95284
 11
22.2266
 21
5.90486
  0
LINE
  8
0
 10
22.2266
 20
5.90486
 11
22.2323
 21
5.85612
  0
LINE
  8
0
 10
22.2323
 20
5.85612
 11
22.2331
 21
5.80707
  0
LINE
  8
0
 10
22.2331
 20
5.80707
 11
22.229
 21
5.75816
  0
LINE
  8
0
 10
22.229
 20
5.75816
 11
22.2203
 21
5.70988
  0
LINE
  8
0
 10
22.2203
 20
5.70988
 11
22.2068
 21
5.6627
  0
LINE
  8
0
 10
22.2068
 20
5.6627
 11
22.1888
 21
5.61707
  0
LINE
  8
0
 10
22.1888
 20
5.61707
 11
22.1663
 21
5.57343
  0
LINE
  8
0
 10
22.1663
 20
5.57343
 11
22.1397
 21
5.53218
  0
LINE
  8
0
 10
22.1397
 20
5.53218
 11
22.1092
 21
5.49374
  0
LINE
  8
0
 10
22.1092
 20
5.49374
 11
22.0751
 21
5.4585
  0
LINE
  8
0
 10
22.0751
 20
5.4585
 11
22.0377
 21
5.42674
  0
LINE
  8
0
 10
22.0377
 20
5.42674
 11
21.9974
 21
5.39882
  0
LINE
  8
0
 10
21.9974
 20
5.39882
 11
21.9545
 21
5.37498
  0
LINE
  8
0
 10
21.9545
 20
5.37498
 11
21.9095
 21
5.35547
  0
LINE
  8
0
 10
21.9095
 20
5.35547
 11
21.8627
 21
5.34045
  0
LINE
  8
0
 10
21.8627
 20
5.34045
 11
21.8148
 21
5.33009
  0
LINE
  8
0
 10
21.8148
 20
5.33009
 11
21.766
 21
5.32449
  0
LINE
  8
0
 10
21.766
 20
5.32449
 11
21.717
 21
5.32368
  0
LINE
  8
0
 10
21.717
 20
5.32368
 11
21.6681
 21
5.3277
  0
LINE
  8
0
 10
-21.7986
 20
-6.31914
 11
-21.8469
 21
-6.31036
  0
LINE
  8
0
 10
-21.8469
 20
-6.31036
 11
-21.894
 21
-6.29689
  0
LINE
  8
0
 10
-21.894
 20
-6.29689
 11
-21.9397
 21
-6.27885
  0
LINE
  8
0
 10
-21.9397
 20
-6.27885
 11
-21.9833
 21
-6.25644
  0
LINE
  8
0
 10
-21.9833
 20
-6.25644
 11
-22.0246
 21
-6.22984
  0
LINE
  8
0
 10
-22.0246
 20
-6.22984
 11
-22.063
 21
-6.19934
  0
LINE
  8
0
 10
-22.063
 20
-6.19934
 11
-22.0983
 21
-6.16522
  0
LINE
  8
0
 10
-22.0983
 20
-6.16522
 11
-22.13
 21
-6.12781
  0
LINE
  8
0
 10
-22.13
 20
-6.12781
 11
-22.1579
 21
-6.08745
  0
LINE
  8
0
 10
-22.1579
 20
-6.08745
 11
-22.1818
 21
-6.04457
  0
LINE
  8
0
 10
-22.1818
 20
-6.04457
 11
-22.2013
 21
-5.99954
  0
LINE
  8
0
 10
-22.2013
 20
-5.99954
 11
-22.2163
 21
-5.95284
  0
LINE
  8
0
 10
-22.2163
 20
-5.95284
 11
-22.2266
 21
-5.90486
  0
LINE
  8
0
 10
-22.2266
 20
-5.90486
 11
-22.2323
 21
-5.85612
  0
LINE
  8
0
 10
-22.2323
 20
-5.85612
 11
-22.2331
 21
-5.80707
  0
LINE
  8
0
 10
-22.2331
 20
-5.80707
 11
-22.229
 21
-5.75816
  0
LINE
  8
0
 10
-22.229
 20
-5.75816
 11
-22.2203
 21
-5.70988
  0
LINE
  8
0
 10
-22.2203
 20
-5.70988
 11
-22.2068
 21
-5.6627
  0
LINE
  8
0
 10
-22.2068
 20
-5.6627
 11
-22.1888
 21
-5.61707
  0
LINE
  8
0
 10
-22.1888
 20
-5.61707
 11
-22.1663
 21
-5.57343
  0
LINE
  8
0
 10
-22.1663
 20
-5.57343
 11
-22.1397
 21
-5.53218
  0
LINE
  8
0
 10
-22.1397
 20
-5.53218
 11
-22.1092
 21
-5.49374
  0
LINE
  8
0
 10
-22.1092
 20
-5.49374
 11
-22.0751
 21
-5.4585
  0
LINE
  8
0
 10
-22.0751
 20
-5.4585
 11
-22.0377
 21
-5.42674
  0
LINE
  8
0
 10
-22.0377
 20
-5.42674
 11
-21.9974
 21
-5.39882
  0
LINE
  8
0
 10
-21.9974
 20
-5.39882
 11
-21.9545
 21
-5.37498
  0
LINE
  8
0
 10
-21.9545
 20
-5.37498
 11
-21.9095
 21
-5.35547
  0
LINE
  8
0
 10
-21.9095
 20
-5.35547
 11
-21.8627
 21
-5.34045
  0
LINE
  8
0
 10
-21.8627
 20
-5.34045
 11
-21.8148
 21
-5.33009
  0
LINE
  8
0
 10
-21.8148
 20
-5.33009
 11
-21.766
 21
-5.32449
  0
LINE
  8
0
 10
-21.766
 20
-5.32449
 11
-21.717
 21
-5.32368
  0
LINE
  8
0
 10
-21.717
 20
-5.32368
 11
-21.6681
 21
-5.3277
  0
LINE
  8
0
 10
-21.6681
 20
-5.3277
 11
-21.6198
 21
-5.33649
  0
LINE
  8
0
 10
-21.6198
 20
-5.33649
 11
-21.5726
 21
-5.34996
  0
LINE
  8
0
 10
-21.5726
 20
-5.34996
 11
-21.527
 21
-5.368
  0
LINE
  8
0
 10
-21.527
 20
-5.368
 11
-21.4833
 21
-5.39041
  0
LINE
  8
0
 10
-21.4833
 20
-5.39041
 11
-21.4421
 21
-5.41699
  0
LINE
  8
0
 10
-21.4421
 20
-5.41699
 11
-21.4037
 21
-5.44749
  0
LINE
  8
0
 10
-21.4037
 20
-5.44749
 11
-21.3684
 21
-5.48163
  0
LINE
  8
0
 10
-21.3684
 20
-5.48163
 11
-21.3366
 21
-5.51904
  0
LINE
  8
0
 10
-21.3366
 20
-5.51904
 11
-21.3087
 21
-5.55939
  0
LINE
  8
0
 10
-21.3087
 20
-5.55939
 11
-21.2849
 21
-5.60228
  0
LINE
  8
0
 10
-21.2849
 20
-5.60228
 11
-21.2654
 21
-5.64729
  0
LINE
  8
0
 10
-21.2654
 20
-5.64729
 11
-21.2504
 21
-5.69402
  0
LINE
  8
0
 10
-21.2504
 20
-5.69402
 11
-21.24
 21
-5.74197
  0
LINE
  8
0
 10
-21.24
 20
-5.74197
 11
-21.2344
 21
-5.79073
  0
LINE
  8
0
 10
-21.2344
 20
-5.79073
 11
-21.2336
 21
-5.83978
  0
LINE
  8
0
 10
-21.2336
 20
-5.83978
 11
-21.2376
 21
-5.88869
  0
LINE
  8
0
 10
-21.2376
 20
-5.88869
 11
-21.2464
 21
-5.93697
  0
LINE
  8
0
 10
-21.2464
 20
-5.93697
 11
-21.2599
 21
-5.98415
  0
LINE
  8
0
 10
-21.2599
 20
-5.98415
 11
-21.2779
 21
-6.02977
  0
LINE
  8
0
 10
-21.2779
 20
-6.02977
 11
-21.3003
 21
-6.07343
  0
LINE
  8
0
 10
-21.3003
 20
-6.07343
 11
-21.3269
 21
-6.11465
  0
LINE
  8
0
 10
-21.3269
 20
-6.11465
 11
-21.3574
 21
-6.15309
  0
LINE
  8
0
 10
-21.3574
 20
-6.15309
 11
-21.3915
 21
-6.18835
  0
LINE
  8
0
 10
-21.3915
 20
-6.18835
 11
-21.4289
 21
-6.22009
  0
LINE
  8
0
 10
-21.4289
 20
-6.22009
 11
-21.4693
 21
-6.24802
  0
LINE
  8
0
 10
-21.4693
 20
-6.24802
 11
-21.5122
 21
-6.27185
  0
LINE
  8
0
 10
-21.5122
 20
-6.27185
 11
-21.5572
 21
-6.29137
  0
LINE
  8
0
 10
-21.5572
 20
-6.29137
 11
-21.6039
 21
-6.30638
  0
LINE
  8
0
 10
-21.6039
 20
-6.30638
 11
-21.6519
 21
-6.31674
  0
LINE
  8
0
 10
-21.6519
 20
-6.31674
 11
-21.7006
 21
-6.32236
  0
LINE
  8
0
 10
-21.7006
 20
-6.32236
 11
-21.7497
 21
-6.32315
  0
LINE
  8
0
 10
-21.7497
 20
-6.32315
 11
-21.7986
 21
-6.31914
  0
LINE
  8
0
 10
21.7006
 20
-6.32236
 11
21.6519
 21
-6.31674
  0
LINE
  8
0
 10
21.6519
 20
-6.31674
 11
21.6039
 21
-6.30638
  0
LINE
  8
0
 10
21.6039
 20
-6.30638
 11
21.5572
 21
-6.29137
  0
LINE
  8
0
 10
21.5572
 20
-6.29137
 11
21.5122
 21
-6.27185
  0
LINE
  8
0
 10
21.5122
 20
-6.27185
 11
21.4693
 21
-6.24802
  0
LINE
  8
0
 10
21.4693
 20
-6.24802
 11
21.4289
 21
-6.22009
  0
LINE
  8
0
 10
21.4289
 20
-6.22009
 11
21.3915
 21
-6.18835
  0
LINE
  8
0
 10
21.3915
 20
-6.18835
 11
21.3574
 21
-6.15309
  0
LINE
  8
0
 10
21.3574
 20
-6.15309
 11
21.3269
 21
-6.11465
  0
LINE
  8
0
 10
21.3269
 20
-6.11465
 11
21.3003
 21
-6.07343
  0
LINE
  8
0
 10
21.3003
 20
-6.07343
 11
21.2779
 21
-6.02977
  0
LINE
  8
0
 10
21.2779
 20
-6.02977
 11
21.2599
 21
-5.98415
  0
LINE
  8
0
 10
21.2599
 20
-5.98415
 11
21.2464
 21
-5.93697
  0
LINE
  8
0
 10
21.2464
 20
-5.93697
 11
21.2376
 21
-5.88869
  0
LINE
  8
0
 10
21.2376
 20
-5.88869
 11
21.2336
 21
-5.83978
  0
LINE
  8
0
 10
21.2336
 20
-5.83978
 11
21.2344
 21
-5.79073
  0
LINE
  8
0
 10
21.2344
 20
-5.79073
 11
21.24
 21
-5.74197
  0
LINE
  8
0
 10
21.24
 20
-5.74197
 11
21.2504
 21
-5.69402
  0
LINE
  8
0
 10
21.2504
 20
-5.69402
 11
21.2654
 21
-5.64729
  0
LINE
  8
0
 10
21.2654
 20
-5.64729
 11
21.2849
 21
-5.60228
  0
LINE
  8
0
 10
21.2849
 20
-5.60228
 11
21.3087
 21
-5.55939
  0
LINE
  8
0
 10
21.3087
 20
-5.55939
 11
21.3366
 21
-5.51904
  0
LINE
  8
0
 10
21.3366
 20
-5.51904
 11
21.3684
 21
-5.48163
  0
LINE
  8
0
 10
21.3684
 20
-5.48163
 11
21.4037
 21
-5.44749
  0
LINE
  8
0
 10
21.4037
 20
-5.44749
 11
21.4421
 21
-5.41699
  0
LINE
  8
0
 10
21.4421
 20
-5.41699
 11
21.4833
 21
-5.39041
  0
LINE
  8
0
 10
21.4833
 20
-5.39041
 11
21.527
 21
-5.368
  0
LINE
  8
0
 10
21.527
 20
-5.368
 11
21.5726
 21
-5.34996
  0
LINE
  8
0
 10
21.5726
 20
-5.34996
 11
21.6198
 21
-5.33649
  0
LINE
  8
0
 10
21.6198
 20
-5.33649
 11
21.6681
 21
-5.3277
  0
LINE
  8
0
 10
21.6681
 20
-5.3277
 11
21.717
 21
-5.32368
  0
LINE
  8
0
 10
21.717
 20
-5.32368
 11
21.766
 21
-5.32449
  0
LINE
  8
0
 10
21.766
 20
-5.32449
 11
21.8148
 21
-5.33009
  0
LINE
  8
0
 10
21.8148
 20
-5.33009
 11
21.8627
 21
-5.34045
  0
LINE
  8
0
 10
21.8627
 20
-5.34045
 11
21.9095
 21
-5.35547
  0
LINE
  8
0
 10
21.9095
 20
-5.35547
 11
21.9545
 21
-5.37498
  0
LINE
  8
0
 10
21.9545
 20
-5.37498
 11
21.9974
 21
-5.39882
  0
LINE
  8
0
 10
21.9974
 20
-5.39882
 11
22.0377
 21
-5.42674
  0
LINE
  8
0
 10
22.0377
 20
-5.42674
 11
22.0751
 21
-5.4585
  0
LINE
  8
0
 10
22.0751
 20
-5.4585
 11
22.1092
 21
-5.49374
  0
LINE
  8
0
 10
22.1092
 20
-5.49374
 11
22.1397
 21
-5.53218
  0
LINE
  8
0
 10
22.1397
 20
-5.53218
 11
22.1663
 21
-5.57343
  0
LINE
  8
0
 10
22.1663
 20
-5.57343
 11
22.1888
 21
-5.61707
  0
LINE
  8
0
 10
22.1888
 20
-5.61707
 11
22.2068
 21
-5.6627
  0
LINE
  8
0
 10
22.2068
 20
-5.6627
 11
22.2203
 21
-5.70988
  0
LINE
  8
0
 10
22.2203
 20
-5.70988
 11
22.229
 21
-5.75816
  0
LINE
  8
0
 10
22.229
 20
-5.75816
 11
22.2331
 21
-5.80707
  0
LINE
  8
0
 10
22.2331
 20
-5.80707
 11
22.2323
 21
-5.85612
  0
LINE
  8
0
 10
22.2323
 20
-5.85612
 11
22.2266
 21
-5.90486
  0
LINE
  8
0
 10
22.2266
 20
-5.90486
 11
22.2163
 21
-5.95284
  0
LINE
  8
0
 10
22.2163
 20
-5.95284
 11
22.2013
 21
-5.99954
  0
LINE
  8
0
 10
22.2013
 20
-5.99954
 11
22.1818
 21
-6.04457
  0
LINE
  8
0
 10
22.1818
 20
-6.04457
 11
22.1579
 21
-6.08745
  0
LINE
  8
0
 10
22.1579
 20
-6.08745
 11
22.13
 21
-6.12781
  0
LINE
  8
0
 10
22.13
 20
-6.12781
 11
22.0983
 21
-6.16522
  0
LINE
  8
0
 10
22.0983
 20
-6.16522
 11
22.063
 21
-6.19934
  0
LINE
  8
0
 10
22.063
 20
-6.19934
 11
22.0246
 21
-6.22984
  0
LINE
  8
0
 10
22.0246
 20
-6.22984
 11
21.9833
 21
-6.25644
  0
LINE
  8
0
 10
21.9833
 20
-6.25644
 11
21.9397
 21
-6.27885
  0
LINE
  8
0
 10
21.9397
 20
-6.27885
 11
21.894
 21
-6.29689
  0
LINE
  8
0
 10
21.894
 20
-6.29689
 11
21.8469
 21
-6.31036
  0
LINE
  8
0
 10
21.8469
 20
-6.31036
 11
21.7986
 21
-6.31914
  0
LINE
  8
0
 10
21.7986
 20
-6.31914
 11
21.7497
 21
-6.32315
  0
LINE
  8
0
 10
21.7497
 20
-6.32315
 11
21.7006
 21
-6.32236
  0
LINE
  8
0
 10
-15.9589
 20
-16.4075
 11
-16.0074
 21
-16.4003
  0
LINE
  8
0
 10
-16.0074
 20
-16.4003
 11
-16.055
 21
-16.3884
  0
LINE
  8
0
 10
-16.055
 20
-16.3884
 11
-16.1012
 21
-16.3718
  0
LINE
  8
0
 10
-16.1012
 20
-16.3718
 11
-16.1456
 21
-16.3509
  0
LINE
  8
0
 10
-16.1456
 20
-16.3509
 11
-16.1877
 21
-16.3256
  0
LINE
  8
0
 10
-16.1877
 20
-16.3256
 11
-16.2271
 21
-16.2964
  0
LINE
  8
0
 10
-16.2271
 20
-16.2964
 11
-16.2634
 21
-16.2634
  0
LINE
  8
0
 10
-16.2634
 20
-16.2634
 11
-16.2964
 21
-16.2271
  0
LINE
  8
0
 10
-16.2964
 20
-16.2271
 11
-16.3256
 21
-16.1877
  0
LINE
  8
0
 10
-16.3256
 20
-16.1877
 11
-16.3509
 21
-16.1456
  0
LINE
  8
0
 10
-16.3509
 20
-16.1456
 11
-16.3718
 21
-16.1012
  0
LINE
  8
0
 10
-16.3718
 20
-16.1012
 11
-16.3884
 21
-16.055
  0
LINE
  8
0
 10
-16.3884
 20
-16.055
 11
-16.4003
 21
-16.0074
  0
LINE
  8
0
 10
-16.4003
 20
-16.0074
 11
-16.4075
 21
-15.9589
  0
LINE
  8
0
 10
-16.4075
 20
-15.9589
 11
-16.4099
 21
-15.9099
  0
LINE
  8
0
 10
-16.4099
 20
-15.9099
 11
-16.4075
 21
-15.8609
  0
LINE
  8
0
 10
-16.4075
 20
-15.8609
 11
-16.4003
 21
-15.8123
  0
LINE
  8
0
 10
-16.4003
 20
-15.8123
 11
-16.3884
 21
-15.7648
  0
LINE
  8
0
 10
-16.3884
 20
-15.7648
 11
-16.3718
 21
-15.7186
  0
LINE
  8
0
 10
-16.3718
 20
-15.7186
 11
-16.3509
 21
-15.6742
  0
LINE
  8
0
 10
-16.3509
 20
-15.6742
 11
-16.3256
 21
-15.6321
  0
LINE
  8
0
 10
-16.3256
 20
-15.6321
 11
-16.2964
 21
-15.5927
  0
LINE
  8
0
 10
-16.2964
 20
-15.5927
 11
-16.2634
 21
-15.5563
  0
LINE
  8
0
 10
-16.2634
 20
-15.5563
 11
-16.2271
 21
-15.5234
  0
LINE
  8
0
 10
-16.2271
 20
-15.5234
 11
-16.1877
 21
-15.4942
  0
LINE
  8
0
 10
-16.1877
 20
-15.4942
 11
-16.1456
 21
-15.4689
  0
LINE
  8
0
 10
-16.1456
 20
-15.4689
 11
-16.1012
 21
-15.448
  0
LINE
  8
0
 10
-16.1012
 20
-15.448
 11
-16.055
 21
-15.4314
  0
LINE
  8
0
 10
-16.055
 20
-15.4314
 11
-16.0074
 21
-15.4195
  0
LINE
  8
0
 10
-16.0074
 20
-15.4195
 11
-15.9589
 21
-15.4123
  0
LINE
  8
0
 10
-15.9589
 20
-15.4123
 11
-15.9099
 21
-15.4099
  0
LINE
  8
0
 10
-15.9099
 20
-15.4099
 11
-15.8609
 21
-15.4123
  0
LINE
  8
0
 10
-15.8609
 20
-15.4123
 11
-15.8123
 21
-15.4195
  0
LINE
  8
0
 10
-15.8123
 20
-15.4195
 11
-15.7648
 21
-15.4314
  0
LINE
  8
0
 10
-15.7648
 20
-15.4314
 11
-15.7186
 21
-15.448
  0
LINE
  8
0
 10
-15.7186
 20
-15.448
 11
-15.6742
 21
-15.4689
  0
LINE
  8
0
 10
-15.6742
 20
-15.4689
 11
-15.6321
 21
-15.4942
  0
LINE
  8
0
 10
-15.6321
 20
-15.4942
 11
-15.5927
 21
-15.5234
  0
LINE
  8
0
 10
-15.5927
 20
-15.5234
 11
-15.5563
 21
-15.5563
  0
LINE
  8
0
 10
-15.5563
 20
-15.5563
 11
-15.5234
 21
-15.5927
  0
LINE
  8
0
 10
-15.5234
 20
-15.5927
 11
-15.4942
 21
-15.6321
  0
LINE
  8
0
 10
-15.4942
 20
-15.6321
 11
-15.4689
 21
-15.6742
  0
LINE
  8
0
 10
-15.4689
 20
-15.6742
 11
-15.448
 21
-15.7186
  0
LINE
  8
0
 10
-15.448
 20
-15.7186
 11
-15.4314
 21
-15.7648
  0
LINE
  8
0
 10
-15.4314
 20
-15.7648
 11
-15.4195
 21
-15.8123
  0
LINE
  8
0
 10
-15.4195
 20
-15.8123
 11
-15.4123
 21
-15.8609
  0
LINE
  8
0
 10
-15.4123
 20
-15.8609
 11
-15.4099
 21
-15.9099
  0
LINE
  8
0
 10
-15.4099
 20
-15.9099
 11
-15.4123
 21
-15.9589
  0
LINE
  8
0
 10
-15.4123
 20
-15.9589
 11
-15.4195
 21
-16.0074
  0
LINE
  8
0
 10
-15.4195
 20
-16.0074
 11
-15.4314
 21
-16.055
  0
LINE
  8
0
 10
-15.4314
 20
-16.055
 11
-15.448
 21
-16.1012
  0
LINE
  8
0
 10
-15.448
 20
-16.1012
 11
-15.4689
 21
-16.1456
  0
LINE
  8
0
 10
-15.4689
 20
-16.1456
 11
-15.4942
 21
-16.1877
  0
LINE
  8
0
 10
-15.4942
 20
-16.1877
 11
-15.5234
 21
-16.2271
  0
LINE
  8
0
 10
-15.5234
 20
-16.2271
 11
-15.5563
 21
-16.2634
  0
LINE
  8
0
 10
-15.5563
 20
-16.2634
 11
-15.5927
 21
-16.2964
  0
LINE
  8
0
 10
-15.5927
 20
-16.2964
 11
-15.6321
 21
-16.3256
  0
LINE
  8
0
 10
-15.6321
 20
-16.3256
 11
-15.6742
 21
-16.3509
  0
LINE
  8
0
 10
-15.6742
 20
-16.3509
 11
-15.7186
 21
-16.3718
  0
LINE
  8
0
 10
-15.7186
 20
-16.3718
 11
-15.7648
 21
-16.3884
  0
LINE
  8
0
 10
-15.7648
 20
-16.3884
 11
-15.8123
 21
-16.4003
  0
LINE
  8
0
 10
-15.8123
 20
-16.4003
 11
-15.8609
 21
-16.4075
  0
LINE
  8
0
 10
-15.8609
 20
-16.4075
 11
-15.9099
 21
-16.4099
  0
LINE
  8
0
 10
-15.9099
 20
-16.4099
 11
-15.9589
 21
-16.4075
  0
LINE
  8
0
 10
15.8609
 20
-16.4075
 11
15.8123
 21
-16.4003
  0
LINE
  8
0
 10
15.8123
 20
-16.4003
 11
15.7648
 21
-16.3884
  0
LINE
  8
0
 10
15.7648
 20
-16.3884
 11
15.7186
 21
-16.3718
  0
LINE
  8
0
 10
15.7186
 20
-16.3718
 11
15.6742
 21
-16.3509
  0
LINE
  8
0
 10
15.6742
 20
-16.3509
 11
15.6321
 21
-16.3256
  0
LINE
  8
0
 10
15.6321
 20
-16.3256
 11
15.5927
 21
-16.2964
  0
LINE
  8
0
 10
15.5927
 20
-16.2964
 11
15.5563
 21
-16.2634
  0
LINE
  8
0
 10
15.5563
 20
-16.2634
 11
15.5234
 21
-16.2271
  0
LINE
  8
0
 10
15.5234
 20
-16.2271
 11
15.4942
 21
-16.1877
  0
LINE
  8
0
 10
15.4942
 20
-16.1877
 11
15.4689
 21
-16.1456
  0
LINE
  8
0
 10
15.4689
 20
-16.1456
 11
15.448
 21
-16.1012
  0
LINE
  8
0
 10
15.448
 20
-16.1012
 11
15.4314
 21
-16.055
  0
LINE
  8
0
 10
15.4314
 20
-16.055
 11
15.4195
 21
-16.0074
  0
LINE
  8
0
 10
15.4195
 20
-16.0074
 11
15.4123
 21
-15.9589
  0
LINE
  8
0
 10
15.4123
 20
-15.9589
 11
15.4099
 21
-15.9099
  0
LINE
  8
0
 10
15.4099
 20
-15.9099
 11
15.4123
 21
-15.8609
  0
LINE
  8
0
 10
15.4123
 20
-15.8609
 11
15.4195
 21
-15.8123
  0
LINE
  8
0
 10
15.4195
 20
-15.8123
 11
15.4314
 21
-15.7648
  0
LINE
  8
0
 10
15.4314
 20
-15.7648
 11
15.448
 21
-15.7186
  0
LINE
  8
0
 10
15.448
 20
-15.7186
 11
15.4689
 21
-15.6742
  0
LINE
  8
0
 10
15.4689
 20
-15.6742
 11
15.4942
 21
-15.6321
  0
LINE
  8
0
 10
15.4942
 20
-15.6321
 11
15.5234
 21
-15.5927
  0
LINE
  8
0
 10
15.5234
 20
-15.5927
 11
15.5563
 21
-15.5563
  0
LINE
  8
0
 10
15.5563
 20
-15.5563
 11
15.5927
 21
-15.5234
  0
LINE
  8
0
 10
15.5927
 20
-15.5234
 11
15.6321
 21
-15.4942
  0
LINE
  8
0
 10
15.6321
 20
-15.4942
 11
15.6742
 21
-15.4689
  0
LINE
  8
0
 10
15.6742
 20
-15.4689
 11
15.7186
 21
-15.448
  0
LINE
  8
0
 10
15.7186
 20
-15.448
 11
15.7648
 21
-15.4314
  0
LINE
  8
0
 10
15.7648
 20
-15.4314
 11
15.8123
 21
-15.4195
  0
LINE
  8
0
 10
15.8123
 20
-15.4195
 11
15.8609
 21
-15.4123
  0
LINE
  8
0
 10
15.8609
 20
-15.4123
 11
15.9099
 21
-15.4099
  0
LINE
  8
0
 10
15.9099
 20
-15.4099
 11
15.9589
 21
-15.4123
  0
LINE
  8
0
 10
15.9589
 20
-15.4123
 11
16.0074
 21
-15.4195
  0
LINE
  8
0
 10
16.0074
 20
-15.4195
 11
16.055
 21
-15.4314
  0
LINE
  8
0
 10
16.055
 20
-15.4314
 11
16.1012
 21
-15.448
  0
LINE
  8
0
 10
16.1012
 20
-15.448
 11
16.1456
 21
-15.4689
  0
LINE
  8
0
 10
16.1456
 20
-15.4689
 11
16.1877
 21
-15.4942
  0
LINE
  8
0
 10
16.1877
 20
-15.4942
 11
16.2271
 21
-15.5234
  0
LINE
  8
0
 10
16.2271
 20
-15.5234
 11
16.2634
 21
-15.5563
  0
LINE
  8
0
 10
16.2634
 20
-15.5563
 11
16.2964
 21
-15.5927
  0
LINE
  8
0
 10
16.2964
 20
-15.5927
 11
16.3256
 21
-15.6321
  0
LINE
  8
0
 10
16.3256
 20
-15.6321
 11
16.3509
 21
-15.6742
  0
LINE
  8
0
 10
16.3509
 20
-15.6742
 11
16.3718
 21
-15.7186
  0
LINE
  8
0
 10
16.3718
 20
-15.7186
 11
16.3884
 21
-15.7648
  0
LINE
  8
0
 10
16.3884
 20
-15.7648
 11
16.4003
 21
-15.8123
  0
LINE
  8
0
 10
16.4003
 20
-15.8123
 11
16.4075
 21
-15.8609
  0
LINE
  8
0
 10
16.4075
 20
-15.8609
 11
16.4099
 21
-15.9099
  0
LINE
  8
0
 10
16.4099
 20
-15.9099
 11
16.4075
 21
-15.9589
  0
LINE
  8
0
 10
16.4075
 20
-15.9589
 11
16.4003
 21
-16.0074
  0
LINE
  8
0
 10
16.4003
 20
-16.0074
 11
16.3884
 21
-16.055
  0
LINE
  8
0
 10
16.3884
 20
-16.055
 11
16.3718
 21
-16.1012
  0
LINE
  8
0
 10
16.3718
 20
-16.1012
 11
16.3509
 21
-16.1456
  0
LINE
  8
0
 10
16.3509
 20
-16.1456
 11
16.3256
 21
-16.1877
  0
LINE
  8
0
 10
16.3256
 20
-16.1877
 11
16.2964
 21
-16.2271
  0
LINE
  8
0
 10
16.2964
 20
-16.2271
 11
16.2634
 21
-16.2634
  0
LINE
  8
0
 10
16.2634
 20
-16.2634
 11
16.2271
 21
-16.2964
  0
LINE
  8
0
 10
16.2271
 20
-16.2964
 11
16.1877
 21
-16.3256
  0
LINE
  8
0
 10
16.1877
 20
-16.3256
 11
16.1456
 21
-16.3509
  0
LINE
  8
0
 10
16.1456
 20
-16.3509
 11
16.1012
 21
-16.3718
  0
LINE
  8
0
 10
16.1012
 20
-16.3718
 11
16.055
 21
-16.3884
  0
LINE
  8
0
 10
16.055
 20
-16.3884
 11
16.0074
 21
-16.4003
  0
LINE
  8
0
 10
16.0074
 20
-16.4003
 11
15.9589
 21
-16.4075
  0
LINE
  8
0
 10
15.9589
 20
-16.4075
 11
15.9099
 21
-16.4099
  0
LINE
  8
0
 10
15.9099
 20
-16.4099
 11
15.8609
 21
-16.4075
  0
LINE
  8
0
 10
-5.85612
 20
-22.2323
 11
-5.90486
 21
-22.2266
  0
LINE
  8
0
 10
-5.90486
 20
-22.2266
 11
-5.95284
 21
-22.2163
  0
LINE
  8
0
 10
-5.95284
 20
-22.2163
 11
-5.99954
 21
-22.2013
  0
LINE
  8
0
 10
-5.99954
 20
-22.2013
 11
-6.04457
 21
-22.1818
  0
LINE
  8
0
 10
-6.04457
 20
-22.1818
 11
-6.08745
 21
-22.1579
  0
LINE
  8
0
 10
-6.08745
 20
-22.1579
 11
-6.12781
 21
-22.13
  0
LINE
  8
0
 10
-6.12781
 20
-22.13
 11
-6.16522
 21
-22.0983
  0
LINE
  8
0
 10
-6.16522
 20
-22.0983
 11
-6.19934
 21
-22.063
  0
LINE
  8
0
 10
-6.19934
 20
-22.063
 11
-6.22984
 21
-22.0246
  0
LINE
  8
0
 10
-6.22984
 20
-22.0246
 11
-6.25644
 21
-21.9833
  0
LINE
  8
0
 10
-6.25644
 20
-21.9833
 11
-6.27885
 21
-21.9397
  0
LINE
  8
0
 10
-6.27885
 20
-21.9397
 11
-6.29689
 21
-21.894
  0
LINE
  8
0
 10
-6.29689
 20
-21.894
 11
-6.31036
 21
-21.8469
  0
LINE
  8
0
 10
-6.31036
 20
-21.8469
 11
-6.31914
 21
-21.7986
  0
LINE
  8
0
 10
-6.31914
 20
-21.7986
 11
-6.32315
 21
-21.7497
  0
LINE
  8
0
 10
-6.32315
 20
-21.7497
 11
-6.32236
 21
-21.7006
  0
LINE
  8
0
 10
-6.32236
 20
-21.7006
 11
-6.31674
 21
-21.6519
  0
LINE
  8
0
 10
-6.31674
 20
-21.6519
 11
-6.30638
 21
-21.6039
  0
LINE
  8
0
 10
-6.30638
 20
-21.6039
 11
-6.29137
 21
-21.5572
  0
LINE
  8
0
 10
-6.29137
 20
-21.5572
 11
-6.27185
 21
-21.5122
  0
LINE
  8
0
 10
-6.27185
 20
-21.5122
 11
-6.24802
 21
-21.4693
  0
LINE
  8
0
 10
-6.24802
 20
-21.4693
 11
-6.22009
 21
-21.4289
  0
LINE
  8
0
 10
-6.22009
 20
-21.4289
 11
-6.18835
 21
-21.3915
  0
LINE
  8
0
 10
-6.18835
 20
-21.3915
 11
-6.15309
 21
-21.3574
  0
LINE
  8
0
 10
-6.15309
 20
-21.3574
 11
-6.11465
 21
-21.3269
  0
LINE
  8
0
 10
-6.11465
 20
-21.3269
 11
-6.07343
 21
-21.3003
  0
LINE
  8
0
 10
-6.07343
 20
-21.3003
 11
-6.02977
 21
-21.2779
  0
LINE
  8
0
 10
-6.02977
 20
-21.2779
 11
-5.98415
 21
-21.2599
  0
LINE
  8
0
 10
-5.98415
 20
-21.2599
 11
-5.93697
 21
-21.2464
  0
LINE
  8
0
 10
-5.93697
 20
-21.2464
 11
-5.88869
 21
-21.2376
  0
LINE
  8
0
 10
-5.88869
 20
-21.2376
 11
-5.83978
 21
-21.2336
  0
LINE
  8
0
 10
-5.83978
 20
-21.2336
 11
-5.79073
 21
-21.2344
  0
LINE
  8
0
 10
-5.79073
 20
-21.2344
 11
-5.74197
 21
-21.24
  0
LINE
  8
0
 10
-5.74197
 20
-21.24
 11
-5.69402
 21
-21.2504
  0
LINE
  8
0
 10
-5.69402
 20
-21.2504
 11
-5.64729
 21
-21.2654
  0
LINE
  8
0
 10
-5.64729
 20
-21.2654
 11
-5.60228
 21
-21.2849
  0
LINE
  8
0
 10
-5.60228
 20
-21.2849
 11
-5.55939
 21
-21.3087
  0
LINE
  8
0
 10
-5.55939
 20
-21.3087
 11
-5.51904
 21
-21.3366
  0
LINE
  8
0
 10
-5.51904
 20
-21.3366
 11
-5.48163
 21
-21.3684
  0
LINE
  8
0
 10
-5.48163
 20
-21.3684
 11
-5.44749
 21
-21.4037
  0
LINE
  8
0
 10
-5.44749
 20
-21.4037
 11
-5.41699
 21
-21.4421
  0
LINE
  8
0
 10
-5.41699
 20
-21.4421
 11
-5.39041
 21
-21.4833
  0
LINE
  8
0
 10
-5.39041
 20
-21.4833
 11
-5.368
 21
-21.527
  0
LINE
  8
0
 10
-5.368
 20
-21.527
 11
-5.34996
 21
-21.5726
  0
LINE
  8
0
 10
-5.34996
 20
-21.5726
 11
-5.33649
 21
-21.6198
  0
LINE
  8
0
 10
-5.33649
 20
-21.6198
 11
-5.3277
 21
-21.6681
  0
LINE
  8
0
 10
-5.3277
 20
-21.6681
 11
-5.32368
 21
-21.717
  0
LINE
  8
0
 10
-5.32368
 20
-21.717
 11
-5.32449
 21
-21.766
  0
LINE
  8
0
 10
-5.32449
 20
-21.766
 11
-5.33009
 21
-21.8148
  0
LINE
  8
0
 10
-5.33009
 20
-21.8148
 11
-5.34045
 21
-21.8627
  0
LINE
  8
0
 10
-5.34045
 20
-21.8627
 11
-5.35547
 21
-21.9095
  0
LINE
  8
0
 10
-5.35547
 20
-21.9095
 11
-5.37498
 21
-21.9545
  0
LINE
  8
0
 10
-5.37498
 20
-21.9545
 11
-5.39882
 21
-21.9974
  0
LINE
  8
0
 10
-5.39882
 20
-21.9974
 11
-5.42674
 21
-22.0377
  0
LINE
  8
0
 10
-5.42674
 20
-22.0377
 11
-5.4585
 21
-22.0751
  0
LINE
  8
0
 10
-5.4585
 20
-22.0751
 11
-5.49374
 21
-22.1092
  0
LINE
  8
0
 10
-5.49374
 20
-22.1092
 11
-5.53218
 21
-22.1397
  0
LINE
  8
0
 10
-5.53218
 20
-22.1397
 11
-5.57343
 21
-22.1663
  0
LINE
  8
0
 10
-5.57343
 20
-22.1663
 11
-5.61707
 21
-22.1888
  0
LINE
  8
0
 10
-5.61707
 20
-22.1888
 11
-5.6627
 21
-22.2068
  0
LINE
  8
0
 10
-5.6627
 20
-22.2068
 11
-5.70988
 21
-22.2203
  0
LINE
  8
0
 10
-5.70988
 20
-22.2203
 11
-5.75816
 21
-22.229
  0
LINE
  8
0
 10
-5.75816
 20
-22.229
 11
-5.80707
 21
-22.2331
  0
LINE
  8
0
 10
-5.80707
 20
-22.2331
 11
-5.85612
 21
-22.2323
  0
LINE
  8
0
 10
5.75816
 20
-22.229
 11
5.70988
 21
-22.2203
  0
LINE
  8
0
 10
5.70988
 20
-22.2203
 11
5.6627
 21
-22.2068
  0
LINE
  8
0
 10
5.6627
 20
-22.2068
 11
5.61707
 21
-22.1888
  0
LINE
  8
0
 10
5.61707
 20
-22.1888
 11
5.57343
 21
-22.1663
  0
LINE
  8
0
 10
5.57343
 20
-22.1663
 11
5.53218
 21
-22.1397
  0
LINE
  8
0
 10
5.53218
 20
-22.1397
 11
5.49374
 21
-22.1092
  0
LINE
  8
0
 10
5.49374
 20
-22.1092
 11
5.4585
 21
-22.0751
  0
LINE
  8
0
 10
5.4585
 20
-22.0751
 11
5.42674
 21
-22.0377
  0
LINE
  8
0
 10
5.42674
 20
-22.0377
 11
5.39882
 21
-21.9974
  0
LINE
  8
0
 10
5.39882
 20
-21.9974
 11
5.37498
 21
-21.9545
  0
LINE
  8
0
 10
5.37498
 20
-21.9545
 11
5.35547
 21
-21.9095
  0
LINE
  8
0
 10
5.35547
 20
-21.9095
 11
5.34045
 21
-21.8627
  0
LINE
  8
0
 10
5.34045
 20
-21.8627
 11
5.33009
 21
-21.8148
  0
LINE
  8
0
 10
5.33009
 20
-21.8148
 11
5.32449
 21
-21.766
  0
LINE
  8
0
 10
5.32449
 20
-21.766
 11
5.32368
 21
-21.717
  0
LINE
  8
0
 10
5.32368
 20
-21.717
 11
5.3277
 21
-21.6681
  0
LINE
  8
0
 10
5.3277
 20
-21.6681
 11
5.33649
 21
-21.6198
  0
LINE
  8
0
 10
5.33649
 20
-21.6198
 11
5.34996
 21
-21.5726
  0
LINE
  8
0
 10
5.34996
 20
-21.5726
 11
5.368
 21
-21.527
  0
LINE
  8
0
 10
5.368
 20
-21.527
 11
5.39041
 21
-21.4833
  0
LINE
  8
0
 10
5.39041
 20
-21.4833
 11
5.41699
 21
-21.4421
  0
LINE
  8
0
 10
5.41699
 20
-21.4421
 11
5.44749
 21
-21.4037
  0
LINE
  8
0
 10
5.44749
 20
-21.4037
 11
5.48163
 21
-21.3684
  0
LINE
  8
0
 10
5.48163
 20
-21.3684
 11
5.51904
 21
-21.3366
  0
LINE
  8
0
 10
5.51904
 20
-21.3366
 11
5.55939
 21
-21.3087
  0
LINE
  8
0
 10
5.55939
 20
-21.3087
 11
5.60228
 21
-21.2849
  0
LINE
  8
0
 10
5.60228
 20
-21.2849
 11
5.64729
 21
-21.2654
  0
LINE
  8
0
 10
5.64729
 20
-21.2654
 11
5.69402
 21
-21.2504
  0
LINE
  8
0
 10
5.69402
 20
-21.2504
 11
5.74197
 21
-21.24
  0
LINE
  8
0
 10
5.74197
 20
-21.24
 11
5.79073
 21
-21.2344
  0
LINE
  8
0
 10
5.79073
 20
-21.2344
 11
5.83978
 21
-21.2336
  0
LINE
  8
0
 10
5.83978
 20
-21.2336
 11
5.88869
 21
-21.2376
  0
LINE
  8
0
 10
5.88869
 20
-21.2376
 11
5.93697
 21
-21.2464
  0
LINE
  8
0
 10
5.93697
 20
-21.2464
 11
5.98415
 21
-21.2599
  0
LINE
  8
0
 10
5.98415
 20
-21.2599
 11
6.02977
 21
-21.2779
  0
LINE
  8
0
 10
6.02977
 20
-21.2779
 11
6.07343
 21
-21.3003
  0
LINE
  8
0
 10
6.07343
 20
-21.3003
 11
6.11465
 21
-21.3269
  0
LINE
  8
0
 10
6.11465
 20
-21.3269
 11
6.15309
 21
-21.3574
  0
LINE
  8
0
 10
6.15309
 20
-21.3574
 11
6.18835
 21
-21.3915
  0
LINE
  8
0
 10
6.18835
 20
-21.3915
 11
6.22009
 21
-21.4289
  0
LINE
  8
0
 10
6.22009
 20
-21.4289
 11
6.24802
 21
-21.4693
  0
LINE
  8
0
 10
6.24802
 20
-21.4693
 11
6.27185
 21
-21.5122
  0
LINE
  8
0
 10
6.27185
 20
-21.5122
 11
6.29137
 21
-21.5572
  0
LINE
  8
0
 10
6.29137
 20
-21.5572
 11
6.30638
 21
-21.6039
  0
LINE
  8
0
 10
6.30638
 20
-21.6039
 11
6.31674
 21
-21.6519
  0
LINE
  8
0
 10
6.31674
 20
-21.6519
 11
6.32236
 21
-21.7006
  0
LINE
  8
0
 10
6.32236
 20
-21.7006
 11
6.32315
 21
-21.7497
  0
LINE
  8
0
 10
6.32315
 20
-21.7497
 11
6.31914
 21
-21.7986
  0
LINE
  8
0
 10
6.31914
 20
-21.7986
 11
6.31036
 21
-21.8469
  0
LINE
  8
0
 10
6.31036
 20
-21.8469
 11
6.29689
 21
-21.894
  0
LINE
  8
0
 10
6.29689
 20
-21.894
 11
6.27885
 21
-21.9397
  0
LINE
  8
0
 10
6.27885
 20
-21.9397
 11
6.25644
 21
-21.9833
  0
LINE
  8
0
 10
6.25644
 20
-21.9833
 11
6.22984
 21
-22.0246
  0
LINE
  8
0
 10
6.22984
 20
-22.0246
 11
6.19934
 21
-22.063
  0
LINE
  8
0
 10
6.19934
 20
-22.063
 11
6.16522
 21
-22.0983
  0
LINE
  8
0
 10
6.16522
 20
-22.0983
 11
6.12781
 21
-22.13
  0
LINE
  8
0
 10
6.12781
 20
-22.13
 11
6.08745
 21
-22.1579
  0
LINE
  8
0
 10
6.08745
 20
-22.1579
 11
6.04457
 21
-22.1818
  0
LINE
  8
0
 10
6.04457
 20
-22.1818
 11
5.99954
 21
-22.2013
  0
LINE
  8
0
 10
5.99954
 20
-22.2013
 11
5.95284
 21
-22.2163
  0
LINE
  8
0
 10
5.95284
 20
-22.2163
 11
5.90486
 21
-22.2266
  0
LINE
  8
0
 10
5.90486
 20
-22.2266
 11
5.85612
 21
-22.2323
  0
LINE
  8
0
 10
5.85612
 20
-22.2323
 11
5.80707
 21
-22.2331
  0
LINE
  8
0
 10
5.80707
 20
-22.2331
 11
5.75816
 21
-22.229
  0
ENDSEC
  0
SECTION
  2
OBJECTS
  0
DICTIONARY
  0
ENDSEC
  0
EOF
